{
.appVersion = "3151";
.formatVersion = 3;
DisplayStrings = (
ABCDEFGHIJLMNOPQRSTUVWXYAZKL,
ABCDEFGHIJKLMNOPQRSTUVWXZY,
"  ttt PR b ",
"T ",
ABCDEFGHIJKLMNOPQRSTUVWXZY
);
date = "2023-08-25 11:39:09 +0000";
familyName = BodySans;
fontMaster = (
{
customParameters = (
{
name = "Master Icon Glyph Name";
value = A;
}
);
id = m01;
metricValues = (
{
over = 16;
pos = 800;
},
{
over = 16;
pos = 700;
},
{
over = 16;
pos = 500;
},
{
over = -16;
},
{
over = -16;
pos = -200;
}
);
name = Regular;
userData = {
GSCornerRadius = 15;
};
}
);
glyphs = (
{
glyphname = A;
lastChange = "2023-09-21 11:14:09 +0000";
layers = (
{
layerId = m01;
shapes = (
{
closed = 1;
nodes = (
(108,-1,o),
(133,11,o),
(101,19,cs),
(63,29,o),
(61,44,o),
(61,74,cs),
(61,81,o),
(62,88,o),
(63,95,cs),
(66,105,o),
(78,160,o),
(78,168,c),
(80,175,o),
(83,179,o),
(85,182,cs),
(97,201,o),
(104,233,o),
(114,253,cs),
(119,266,o),
(124,279,o),
(128,292,cs),
(130,299,o),
(132,306,o),
(133,313,cs),
(134,321,o),
(134,329,o),
(137,337,cs),
(142,349,o),
(153,357,o),
(158,369,cs),
(162,377,o),
(162,388,o),
(166,391,cs),
(172,397,o),
(202,397,o),
(234,395,cs),
(265,393,o),
(265,398,o),
(269,374,cs),
(270,367,o),
(274,360,o),
(278,354,cs),
(280,351,o),
(282,348,o),
(284,344,cs),
(289,331,o),
(288,316,o),
(292,303,cs),
(296,288,o),
(302,273,o),
(308,258,cs),
(317,235,l),
(336,188,ls),
(345,169,o),
(342,181,o),
(346,159,c),
(346,155,o),
(361,85,o),
(361,80,cs),
(361,73,o),
(361,64,o),
(357,58,cs),
(355,56,o),
(346,46,o),
(334,39,cs),
(323,32,o),
(311,29,o),
(310,28,cs),
(309,27,o),
(310,25,o),
(309,24,cs),
(308,22,o),
(304,22,o),
(305,19,cs),
(308,10,o),
(322,7,o),
(336,6,cs),
(343,6,o),
(354,5,o),
(366,11,cs),
(375,16,o),
(384,12,o),
(392,18,cs),
(396,21,o),
(397,26,o),
(397,31,cs),
(397,39,o),
(392,53,o),
(392,60,cs),
(392,64,o),
(400,127,o),
(399,139,cs),
(398,149,o),
(395,159,o),
(392,169,cs),
(390,175,o),
(386,181,o),
(385,188,cs),
(383,199,o),
(379,210,o),
(378,221,cs),
(377,233,o),
(379,246,o),
(378,258,cs),
(377,267,o),
(374,276,o),
(373,285,cs),
(372,290,o),
(373,295,o),
(373,300,cs),
(373,323,o),
(380,345,o),
(375,367,cs),
(372,378,o),
(366,388,o),
(359,395,cs),
(355,400,o),
(349,403,o),
(345,408,cs),
(314,439,o),
(329,507,o),
(317,548,cs),
(313,561,o),
(299,590,o),
(288,597,cs),
(286,598,o),
(283,599,o),
(283,600,cs),
(283,602,o),
(303,612,o),
(305,637,cs),
(305,657,o),
(291,700,o),
(272,711,cs),
(263,717,o),
(220,704,o),
(210,693,c),
(210,693,o),
(209,691,o),
(208,691,cs),
(207,691,o),
(206,693,o),
(206,693,c),
(190,703,o),
(156,715,o),
(143,702,cs),
(132,691,o),
(114,637,o),
(117,621,cs),
(118,617,o),
(142,607,o),
(138,594,c),
(138,593,o),
(135,592,o),
(134,591,cs),
(124,584,o),
(120,576,o),
(115,565,cs),
(111,557,o),
(107,551,o),
(105,543,cs),
(102,534,o),
(105,531,o),
(105,524,cs),
(104,515,o),
(101,506,o),
(100,497,cs),
(99,471,o),
(93,422,o),
(77,402,cs),
(72,397,o),
(66,393,o),
(62,388,cs),
(55,381,o),
(50,372,o),
(47,363,cs),
(40,337,o),
(51,312,o),
(49,285,cs),
(49,273,o),
(45,261,o),
(44,248,cs),
(43,232,o),
(45,217,o),
(42,202,cs),
(39,188,o),
(27,158,o),
(25,144,cs),
(22,130,o),
(24,115,o),
(24,101,cs),
(24,88,o),
(25,77,o),
(28,64,cs),
(29,61,o),
(30,57,o),
(30,53,cs),
(30,41,o),
(20,25,o),
(27,15,cs),
(32,8,o),
(42,9,o),
(49,8,cs),
(51,8,o),
(79,-1,o),
(93,-1,cs)
);
},
{
closed = 1;
nodes = (
(202,437,o),
(201,438,o),
(199,439,cs),
(196,441,o),
(186,451,o),
(187,452,c),
(188,455,o),
(191,458,o),
(192,461,cs),
(200,477,o),
(190,527,o),
(187,542,cs),
(185,551,o),
(182,588,o),
(191,588,cs),
(195,588,o),
(199,588,o),
(202,590,cs),
(205,593,o),
(205,596,o),
(206,599,cs),
(207,601,o),
(208,601,o),
(209,603,cs),
(210,604,o),
(210,608,o),
(212,608,cs),
(213,608,o),
(218,601,o),
(221,595,cs),
(223,591,o),
(229,593,o),
(232,593,cs),
(253,592,o),
(218,500,o),
(231,465,cs),
(232,462,o),
(234,459,o),
(236,456,cs),
(237,455,o),
(238,454,o),
(237,453,cs),
(236,451,o),
(231,449,o),
(229,448,cs),
(224,446,o),
(207,437,o),
(204,437,cs)
);
}
);
width = 425;
}
);
unicode = (65,97);
},
{
glyphname = B;
lastChange = "2023-09-21 11:14:11 +0000";
layers = (
{
layerId = m01;
shapes = (
{
closed = 1;
nodes = (
(135,-1,o),
(147,2,o),
(148,2,cs),
(150,2,o),
(152,3,o),
(153,7,c),
(153,12,o),
(161,12,o),
(158,17,cs),
(157,18,o),
(156,18,o),
(155,18,cs),
(149,18,o),
(149,21,o),
(153,28,cs),
(158,35,o),
(170,62,o),
(173,76,cs),
(175,84,o),
(179,106,o),
(179,116,cs),
(180,128,o),
(180,129,o),
(191,152,cs),
(194,159,o),
(231,236,o),
(233,240,cs),
(235,246,o),
(235,246,o),
(235,251,c),
(233,263,o),
(204,293,o),
(200,300,c),
(169,334,o),
(142,347,o),
(131,371,cs),
(125,385,o),
(129,405,o),
(122,426,cs),
(116,446,o),
(121,459,o),
(121,470,cs),
(119,516,o),
(190,462,o),
(229,455,c),
(235,457,o),
(246,473,o),
(256,483,cs),
(264,493,o),
(264,496,o),
(271,507,c),
(287,527,o),
(289,531,o),
(290,533,cs),
(292,537,o),
(293,555,o),
(292,559,cs),
(292,561,o),
(290,569,o),
(291,589,cs),
(291,604,o),
(283,615,o),
(273,627,c),
(263,636,o),
(265,632,o),
(259,636,cs),
(238,649,ls),
(230,654,o),
(212,672,o),
(204,679,cs),
(198,685,ls),
(189,692,o),
(159,712,o),
(147,714,cs),
(144,714,o),
(141,718,o),
(137,716,cs),
(112,699,o),
(115,694,o),
(73,681,c),
(66,680,o),
(61,677,o),
(53,669,cs),
(42,658,o),
(42,658,o),
(40,645,cs),
(39,638,o),
(38,634,o),
(37,633,cs),
(32,628,ls),
(26,623,o),
(21,613,o),
(20,607,cs),
(14,581,o),
(4,529,o),
(8,502,cs),
(9,493,o),
(12,485,o),
(16,475,cs),
(20,467,o),
(26,445,o),
(26,441,cs),
(26,416,o),
(10,395,o),
(7,357,cs),
(6,341,o),
(34,226,o),
(36,213,cs),
(39,193,o),
(33,167,o),
(29,152,cs),
(21,124,o),
(47,53,o),
(47,24,cs),
(47,10,o),
(44,7,o),
(74,6,cs),
(85,6,o),
(122,-7,o),
(133,-3,c)
);
},
{
closed = 1;
nodes = (
(128,24,o),
(107,38,o),
(101,40,cs),
(93,44,o),
(87,53,o),
(82,64,cs),
(78,75,o),
(77,85,o),
(78,125,cs),
(81,206,o),
(85,163,o),
(91,201,cs),
(92,207,o),
(94,285,o),
(101,291,cs),
(107,298,o),
(127,284,o),
(177,244,cs),
(183,239,o),
(183,240,o),
(177,231,cs),
(157,204,o),
(153,184,o),
(151,148,cs),
(147,87,o),
(134,123,o),
(125,99,cs),
(124,96,o),
(129,87,o),
(133,82,cs),
(136,77,o),
(140,61,o),
(138,43,cs),
(138,35,o),
(137,33,o),
(132,28,cs)
);
},
{
closed = 1;
nodes = (
(190,507,o),
(144,531,o),
(131,538,c),
(126,542,o),
(122,543,o),
(121,543,cs),
(106,543,o),
(83,576,o),
(101,582,c),
(102,582,o),
(127,587,o),
(127,592,cs),
(127,593,o),
(126,594,o),
(126,594,c),
(125,595,o),
(125,597,o),
(126,600,cs),
(128,607,o),
(130,613,o),
(130,617,cs),
(130,619,o),
(127,626,o),
(130,630,cs),
(131,631,o),
(134,642,o),
(135,642,c),
(136,643,o),
(136,646,o),
(131,647,cs),
(126,649,l),
(126,654,ls),
(126,659,o),
(125,659,o),
(132,668,cs),
(138,675,o),
(162,669,o),
(182,663,cs),
(193,661,o),
(209,657,o),
(209,645,cs),
(210,638,o),
(216,628,o),
(224,619,cs),
(227,616,o),
(232,618,o),
(232,623,cs),
(232,627,o),
(233,627,o),
(236,626,cs),
(240,625,o),
(244,619,o),
(246,612,cs),
(248,608,o),
(250,605,o),
(253,607,cs),
(254,608,o),
(254,608,o),
(257,607,cs),
(259,606,o),
(265,595,o),
(269,590,c),
(282,566,o),
(273,568,o),
(270,574,cs),
(265,583,o),
(264,585,o),
(262,581,c),
(256,574,o),
(279,555,o),
(273,541,cs),
(270,532,o),
(262,526,o),
(247,514,c),
(220,488,o),
(220,486,o),
(203,497,cs)
);
},
{
closed = 1;
nodes = (
(126,629,o),
(125,630,o),
(125,632,cs),
(125,635,o),
(126,635,o),
(128,637,cs),
(135,644,o),
(131,629,o),
(126,629,c)
);
},
{
closed = 1;
nodes = (
(125,638,o),
(123,643,o),
(123,646,c),
(125,647,o),
(125,647,o),
(128,646,c),
(129,645,o),
(130,643,o),
(130,642,cs),
(130,641,o),
(128,638,o),
(126,638,cs)
);
},
{
closed = 1;
nodes = (
(280,594,o),
(280,593,o),
(278,596,cs),
(275,599,o),
(270,608,o),
(264,616,c),
(257,629,o),
(270,621,o),
(276,616,c),
(278,615,o),
(280,613,o),
(280,612,cs),
(284,596,l),
(283,595,l)
);
}
);
width = 320;
}
);
unicode = (66,98);
},
{
glyphname = C;
lastChange = "2023-09-21 11:14:14 +0000";
layers = (
{
layerId = m01;
shapes = (
{
closed = 1;
nodes = (
(367,6,o),
(357,16,o),
(336,19,cs),
(329,20,o),
(324,23,o),
(320,26,c),
(323,28,o),
(326,28,o),
(328,28,cs),
(335,28,o),
(354,32,o),
(348,36,cs),
(342,39,o),
(327,46,o),
(322,46,cs),
(261,46,o),
(212,124,o),
(195,186,cs),
(191,201,o),
(142,280,o),
(104,314,cs),
(100,318,o),
(100,319,o),
(102,330,cs),
(105,347,o),
(113,359,o),
(116,370,c),
(123,419,o),
(119,421,o),
(120,423,cs),
(134,465,o),
(138,476,o),
(116,515,c),
(114,517,o),
(111,521,o),
(125,530,cs),
(131,534,l),
(150,520,l),
(148,529,l),
(164,512,l),
(159,552,l),
(198,592,o),
(239,643,o),
(266,664,c),
(270,669,o),
(301,666,o),
(305,671,c),
(306,674,o),
(319,674,o),
(321,676,cs),
(324,679,o),
(324,680,o),
(324,682,c),
(340,700,o),
(285,700,o),
(261,696,cs),
(253,695,o),
(148,620,o),
(141,628,c),
(89,665,o),
(57,631,o),
(53,580,cs),
(53,576,o),
(55,576,o),
(51,571,cs),
(40,557,o),
(31,543,o),
(29,528,cs),
(29,522,o),
(29,520,o),
(28,513,cs),
(21,471,o),
(37,389,o),
(28,371,cs),
(20,357,o),
(5,326,o),
(5,309,cs),
(5,287,o),
(13,270,o),
(29,254,c),
(37,244,l),
(43,239,o),
(91,199,o),
(100,193,c),
(103,189,o),
(114,181,o),
(116,178,c),
(125,169,o),
(149,110,o),
(154,103,cs),
(160,94,l),
(207,45,o),
(224,29,o),
(236,20,cs),
(243,14,o),
(243,8,o),
(244,2,cs),
(247,-12,o),
(282,3,o),
(291,3,cs),
(301,3,o),
(346,-5,o),
(356,1,cs)
);
}
);
width = 370;
}
);
unicode = (67,99);
},
{
glyphname = D;
lastChange = "2023-09-21 11:14:16 +0000";
layers = (
{
layerId = m01;
shapes = (
{
closed = 1;
nodes = (
(163,-13,ls),
(206,-13,o),
(206,-27,o),
(217,10,cs),
(219,18,o),
(269,69,o),
(274,75,cs),
(284,88,o),
(294,103,o),
(299,116,cs),
(310,144,o),
(309,149,o),
(309,151,cs),
(310,157,o),
(315,165,o),
(318,170,cs),
(319,171,o),
(322,175,o),
(328,181,cs),
(342,196,o),
(346,199,o),
(356,217,cs),
(359,223,o),
(361,225,o),
(368,234,cs),
(369,235,o),
(371,239,o),
(374,242,cs),
(376,245,o),
(379,248,o),
(380,249,cs),
(388,259,o),
(389,262,o),
(393,268,cs),
(398,275,o),
(401,283,o),
(403,290,c),
(405,305,o),
(403,319,o),
(396,335,cs),
(383,365,o),
(368,374,o),
(372,415,cs),
(376,451,o),
(369,518,o),
(353,545,c),
(350,548,o),
(344,557,o),
(341,560,cs),
(339,563,o),
(336,568,o),
(337,571,c),
(337,596,o),
(309,648,o),
(269,631,cs),
(238,618,ls),
(228,614,o),
(158,673,o),
(156,674,cs),
(148,678,o),
(142,683,o),
(135,688,cs),
(129,692,o),
(78,716,o),
(57,713,cs),
(12,705,o),
(17,671,o),
(17,625,cs),
(17,618,ls),
(17,617,o),
(18,617,o),
(19,617,cs),
(20,617,o),
(20,618,o),
(20,620,cs),
(20,622,o),
(21,622,o),
(21,620,cs),
(21,619,o),
(22,619,o),
(22,619,c),
(22,617,l),
(23,615,o),
(24,614,o),
(26,613,c),
(28,613,o),
(28,612,o),
(28,612,c),
(29,611,o),
(29,611,o),
(30,611,cs),
(31,611,l),
(31,612,o),
(33,613,o),
(33,613,c),
(34,613,l),
(34,612,o),
(36,611,o),
(37,612,c),
(38,612,o),
(39,612,o),
(39,611,c),
(39,611,o),
(40,611,o),
(40,610,cs),
(40,609,o),
(40,609,o),
(41,608,cs),
(42,607,o),
(42,606,o),
(40,605,cs),
(38,604,o),
(33,598,o),
(32,595,cs),
(28,581,o),
(21,561,o),
(20,553,cs),
(20,546,o),
(20,543,o),
(22,539,cs),
(24,535,o),
(25,533,o),
(25,531,cs),
(35,454,ls),
(36,447,o),
(29,403,o),
(29,402,cs),
(29,398,o),
(23,392,o),
(21,387,c),
(21,387,o),
(13,365,o),
(18,349,cs),
(22,335,o),
(29,324,o),
(31,317,cs),
(37,297,o),
(35,305,o),
(37,284,cs),
(37,273,o),
(38,257,o),
(40,246,cs),
(40,243,o),
(41,241,o),
(41,240,cs),
(41,236,l),
(42,234,o),
(41,219,o),
(41,215,cs),
(41,213,o),
(39,202,o),
(39,198,cs),
(39,194,o),
(38,190,o),
(35,180,cs),
(29,162,o),
(29,165,o),
(29,149,cs),
(29,131,o),
(37,54,o),
(38,53,cs),
(39,51,o),
(38,42,o),
(38,41,cs),
(37,31,ls),
(37,28,o),
(36,18,o),
(37,13,cs),
(38,10,o),
(38,7,o),
(38,6,cs),
(38,5,o),
(41,4,o),
(45,3,cs),
(47,2,o),
(48,2,o),
(53,2,cs),
(55,2,o),
(79,-4,o),
(86,-4,cs),
(88,-4,o),
(101,-6,o),
(108,-6,cs),
(115,-6,ls),
(118,-6,o),
(124,-4,o),
(124,-5,cs),
(124,-6,o),
(141,-13,o),
(148,-13,cs)
);
},
{
closed = 1;
nodes = (
(112,34,o),
(90,39,o),
(80,53,cs),
(79,55,o),
(78,57,o),
(77,61,cs),
(76,65,ls),
(75,69,o),
(74,74,o),
(74,79,cs),
(83,198,o),
(79,173,o),
(83,188,c),
(84,190,o),
(92,210,o),
(92,214,cs),
(92,216,o),
(93,219,o),
(111,323,cs),
(112,330,o),
(112,339,o),
(112,342,cs),
(112,344,l),
(111,351,ls),
(109,364,o),
(109,363,o),
(110,366,cs),
(111,368,o),
(112,370,o),
(112,371,c),
(116,383,o),
(117,383,o),
(120,398,cs),
(123,409,o),
(115,480,o),
(115,488,cs),
(117,525,o),
(128,527,o),
(103,560,cs),
(83,586,o),
(84,586,o),
(83,590,cs),
(82,594,o),
(81,596,o),
(83,602,cs),
(88,614,o),
(98,614,o),
(103,614,c),
(104,615,o),
(106,617,o),
(106,618,cs),
(106,621,o),
(107,626,o),
(109,627,cs),
(110,628,o),
(110,628,o),
(110,630,cs),
(110,632,o),
(110,633,o),
(111,634,cs),
(112,635,o),
(112,636,o),
(111,639,c),
(111,641,o),
(112,642,o),
(114,643,c),
(115,643,o),
(118,644,o),
(118,645,cs),
(118,646,o),
(114,656,o),
(115,656,c),
(124,653,o),
(126,653,o),
(132,647,c),
(183,580,o),
(191,572,o),
(214,555,c),
(214,555,o),
(215,554,o),
(215,552,cs),
(215,549,o),
(212,534,o),
(213,533,c),
(215,536,o),
(218,541,o),
(222,541,c),
(223,538,o),
(224,538,o),
(226,539,cs),
(229,540,o),
(229,540,o),
(231,539,c),
(235,539,o),
(274,519,o),
(279,516,cs),
(280,515,o),
(281,512,o),
(281,508,cs),
(276,455,o),
(269,438,o),
(274,418,cs),
(277,408,o),
(290,377,o),
(293,365,cs),
(303,328,o),
(317,325,o),
(312,317,cs),
(289,277,ls),
(257,217,o),
(246,185,o),
(246,183,cs),
(245,174,o),
(242,169,o),
(242,164,cs),
(242,150,o),
(211,88,o),
(205,75,cs),
(204,73,o),
(204,72,o),
(203,71,c),
(203,70,o),
(202,70,o),
(202,70,c),
(202,69,o),
(201,67,o),
(199,65,c),
(195,58,o),
(188,50,o),
(185,49,c),
(182,47,o),
(180,47,o),
(179,47,c),
(168,43,o),
(137,34,o),
(133,34,cs)
);
}
);
width = 420;
}
);
unicode = (68,100);
},
{
glyphname = E;
lastChange = "2023-09-21 11:14:18 +0000";
layers = (
{
layerId = m01;
shapes = (
{
closed = 1;
nodes = (
(254,-1,o),
(250,-1,o),
(256,9,cs),
(257,11,o),
(256,11,o),
(255,12,cs),
(254,13,o),
(254,13,o),
(253,13,cs),
(252,13,o),
(222,18,o),
(211,34,cs),
(209,37,ls),
(207,41,o),
(201,43,o),
(200,44,c),
(196,46,o),
(167,171,o),
(167,200,cs),
(167,213,o),
(163,228,o),
(162,240,cs),
(158,301,o),
(159,288,o),
(136,375,cs),
(125,417,o),
(134,383,o),
(134,438,cs),
(134,443,o),
(130,451,o),
(134,451,c),
(134,451,o),
(135,450,o),
(137,450,c),
(150,447,o),
(228,447,o),
(252,455,cs),
(264,459,o),
(293,466,o),
(297,466,cs),
(303,466,o),
(303,467,o),
(303,468,cs),
(303,470,o),
(302,471,o),
(300,472,c),
(290,474,ls),
(288,474,o),
(287,475,o),
(286,475,cs),
(248,469,o),
(158,459,o),
(146,485,cs),
(140,498,o),
(101,594,o),
(99,603,cs),
(98,607,o),
(101,609,o),
(103,603,cs),
(104,601,o),
(104,602,o),
(106,603,cs),
(113,608,l),
(113,608,o),
(119,600,o),
(124,597,cs),
(129,593,o),
(131,593,o),
(135,597,cs),
(137,599,o),
(139,600,o),
(149,603,c),
(151,603,o),
(180,585,o),
(182,587,c),
(176,596,o),
(176,598,o),
(176,601,cs),
(176,607,ls),
(176,609,o),
(177,612,o),
(177,613,cs),
(178,618,o),
(170,632,o),
(182,634,cs),
(202,638,o),
(224,641,o),
(246,648,cs),
(254,651,o),
(286,664,o),
(292,658,cs),
(304,646,o),
(339,653,o),
(339,657,cs),
(339,672,o),
(370,655,o),
(370,677,cs),
(370,679,o),
(370,680,o),
(369,680,cs),
(368,680,o),
(367,680,o),
(367,681,cs),
(367,682,o),
(366,682,o),
(364,681,cs),
(357,679,o),
(353,681,o),
(334,681,cs),
(304,680,o),
(189,678,o),
(176,674,c),
(161,704,o),
(131,716,o),
(102,703,cs),
(84,694,o),
(77,660,o),
(72,657,cs),
(62,651,o),
(52,649,o),
(47,638,c),
(4,592,o),
(18,573,o),
(35,484,cs),
(36,479,o),
(42,455,o),
(37,427,cs),
(33,405,o),
(20,383,o),
(22,346,cs),
(23,324,o),
(47,287,o),
(51,247,cs),
(56,193,o),
(42,148,o),
(44,127,cs),
(46,115,o),
(55,56,o),
(55,51,cs),
(55,36,o),
(54,34,o),
(53,32,cs),
(52,30,o),
(38,3,o),
(73,0,c),
(77,-1,o),
(91,3,o),
(95,2,cs),
(118,-3,o),
(124,4,o),
(148,4,c),
(175,0,o),
(177,10,o),
(203,7,cs),
(204,7,o),
(218,-1,o),
(227,-1,cs)
);
},
{
closed = 1;
nodes = (
(121,32,o),
(94,39,o),
(86,71,c),
(83,98,o),
(107,230,o),
(107,226,c),
(111,237,o),
(119,218,o),
(119,187,cs),
(119,152,o),
(120,160,o),
(133,127,cs),
(137,116,o),
(148,53,o),
(151,44,cs),
(157,28,o),
(149,21,o),
(147,21,cs),
(146,21,l)
);
}
);
width = 383;
}
);
unicode = (69,101);
},
{
glyphname = F;
lastChange = "2023-09-21 11:15:49 +0000";
layers = (
{
layerId = m01;
shapes = (
{
closed = 1;
nodes = (
(151,-1,o),
(173,-1,o),
(173,0,cs),
(173,1,o),
(179,9,o),
(175,15,cs),
(169,24,o),
(151,34,o),
(135,38,cs),
(106,48,o),
(102,47,o),
(95,57,cs),
(91,63,ls),
(85,72,o),
(90,203,o),
(97,222,cs),
(101,233,ls),
(143,349,o),
(122,406,o),
(122,408,cs),
(122,411,o),
(125,420,o),
(125,423,cs),
(125,425,o),
(126,427,o),
(126,428,cs),
(129,452,l),
(131,452,ls),
(132,452,o),
(174,450,o),
(188,451,cs),
(200,452,o),
(207,453,o),
(212,452,cs),
(217,452,o),
(218,452,o),
(223,453,cs),
(226,454,o),
(230,455,o),
(232,455,cs),
(237,455,o),
(257,458,o),
(259,459,cs),
(260,460,o),
(262,460,o),
(263,460,cs),
(266,460,o),
(277,463,o),
(278,463,cs),
(283,464,o),
(293,464,o),
(295,464,cs),
(296,464,o),
(297,464,o),
(297,465,cs),
(297,466,o),
(298,474,o),
(297,475,c),
(296,479,ls),
(296,480,o),
(295,481,o),
(294,481,cs),
(293,481,ls),
(292,481,o),
(278,485,o),
(272,485,cs),
(245,484,o),
(223,482,o),
(221,481,cs),
(217,480,o),
(204,481,o),
(200,481,cs),
(199,481,o),
(197,482,o),
(195,482,cs),
(130,493,o),
(139,475,o),
(131,508,cs),
(130,512,o),
(127,519,o),
(125,521,cs),
(124,522,l),
(125,525,ls),
(134,551,o),
(117,587,o),
(106,603,cs),
(99,616,o),
(104,604,o),
(116,613,cs),
(117,614,o),
(117,614,o),
(118,614,cs),
(119,614,o),
(120,613,o),
(120,613,c),
(121,613,o),
(123,613,o),
(124,615,c),
(127,615,ls),
(128,615,o),
(130,617,o),
(133,617,cs),
(137,617,o),
(139,614,o),
(141,614,cs),
(144,614,o),
(145,615,o),
(146,614,cs),
(166,590,ls),
(176,579,o),
(162,597,o),
(169,597,cs),
(180,597,o),
(179,595,o),
(179,598,c),
(171,606,o),
(180,607,o),
(179,616,cs),
(174,652,ls),
(172,665,o),
(178,652,o),
(192,652,cs),
(303,652,o),
(307,677,o),
(310,674,cs),
(312,672,o),
(314,671,o),
(317,671,cs),
(322,670,o),
(325,670,o),
(326,670,cs),
(329,670,o),
(329,670,o),
(332,671,cs),
(335,672,o),
(335,673,o),
(340,673,cs),
(345,673,o),
(345,673,o),
(348,674,cs),
(352,675,o),
(354,680,o),
(356,680,cs),
(364,680,o),
(382,689,o),
(387,691,cs),
(393,693,o),
(392,698,o),
(390,698,c),
(390,698,o),
(389,698,o),
(389,699,cs),
(389,700,o),
(292,699,o),
(286,699,cs),
(280,698,o),
(273,697,o),
(257,697,cs),
(243,697,o),
(241,696,o),
(224,696,cs),
(209,696,ls),
(204,696,o),
(197,695,o),
(194,694,cs),
(190,693,o),
(185,691,o),
(181,692,cs),
(176,693,ls),
(136,701,o),
(119,735,o),
(86,702,cs),
(80,696,o),
(80,695,o),
(78,695,cs),
(61,692,o),
(31,665,o),
(22,630,cs),
(18,615,ls),
(18,614,o),
(17,611,o),
(17,609,cs),
(17,585,o),
(21,536,o),
(22,528,cs),
(25,512,o),
(34,487,o),
(35,479,cs),
(36,461,o),
(33,448,o),
(25,434,cs),
(21,425,o),
(18,418,o),
(17,411,cs),
(15,403,o),
(15,393,o),
(16,387,cs),
(23,341,o),
(34,365,o),
(34,314,cs),
(34,302,ls),
(34,284,o),
(39,263,o),
(39,245,cs),
(39,231,o),
(37,227,o),
(37,219,cs),
(36,210,o),
(35,206,o),
(33,199,cs),
(28,180,o),
(25,169,o),
(25,145,cs),
(25,136,o),
(26,134,o),
(27,129,cs),
(40,60,o),
(40,54,o),
(40,49,cs),
(40,16,o),
(23,3,o),
(72,8,cs),
(74,8,o),
(101,-1,o),
(149,-1,cs)
);
}
);
width = 400;
}
);
unicode = (70,102);
},
{
glyphname = G;
lastChange = "2023-09-21 11:14:23 +0000";
layers = (
{
layerId = m01;
shapes = (
{
closed = 1;
nodes = (
(305,2,o),
(541,-12,o),
(556,21,cs),
(583,88,o),
(556,206,o),
(552,214,cs),
(549,222,o),
(487,336,o),
(462,336,c),
(441,390,o),
(380,426,o),
(345,387,cs),
(341,383,o),
(344,382,o),
(341,380,cs),
(339,379,o),
(338,376,o),
(333,375,c),
(302,389,o),
(241,411,o),
(239,411,cs),
(236,411,o),
(236,416,o),
(228,416,cs),
(225,416,o),
(227,416,o),
(218,413,c),
(215,413,o),
(211,412,o),
(205,410,cs),
(203,409,o),
(199,408,o),
(194,408,c),
(182,401,l),
(175,394,o),
(177,397,o),
(169,392,cs),
(155,384,o),
(152,387,o),
(154,380,c),
(155,379,ls),
(156,378,o),
(157,378,o),
(157,378,c),
(165,378,o),
(185,385,o),
(191,387,cs),
(193,388,o),
(193,388,o),
(193,387,c),
(204,387,o),
(202,390,o),
(213,390,cs),
(237,389,o),
(297,345,o),
(300,343,c),
(303,342,o),
(307,340,o),
(311,338,cs),
(322,332,l),
(323,330,o),
(326,322,o),
(326,321,c),
(351,261,l),
(352,262,o),
(353,265,o),
(353,267,cs),
(354,271,l),
(354,279,o),
(355,274,o),
(361,284,c),
(382,288,o),
(384,287,o),
(384,286,c),
(395,283,l),
(399,282,l),
(402,279,o),
(407,277,o),
(413,281,cs),
(416,283,l),
(417,283,o),
(417,282,o),
(419,279,cs),
(421,274,l),
(421,263,ls),
(421,257,o),
(419,252,o),
(419,249,cs),
(419,239,ls),
(419,218,o),
(453,165,o),
(453,164,cs),
(462,117,l),
(462,115,o),
(463,102,o),
(464,102,c),
(465,101,o),
(465,97,o),
(464,96,cs),
(463,94,l),
(461,95,l),
(460,95,o),
(430,95,o),
(412,93,cs),
(285,76,ls),
(273,74,o),
(274,70,o),
(263,71,cs),
(246,71,o),
(167,20,o),
(122,60,cs),
(91,88,o),
(113,143,o),
(114,213,cs),
(115,224,o),
(112,261,o),
(110,276,c),
(108,281,o),
(114,289,o),
(115,294,cs),
(142,497,ls),
(150,554,o),
(168,596,o),
(261,584,cs),
(285,581,o),
(330,581,o),
(354,586,cs),
(364,588,o),
(363,592,o),
(365,592,c),
(367,593,o),
(367,593,o),
(367,588,c),
(404,560,l),
(448,538,o),
(424,463,o),
(479,461,cs),
(502,460,ls),
(503,460,o),
(520,467,o),
(526,463,cs),
(562,435,l),
(564,434,o),
(564,430,o),
(581,413,c),
(583,410,o),
(578,402,o),
(578,401,cs),
(578,399,o),
(583,387,o),
(583,387,c),
(584,386,o),
(586,386,o),
(587,387,c),
(592,399,o),
(621,373,o),
(624,372,c),
(629,369,o),
(630,368,o),
(631,368,cs),
(632,368,o),
(638,365,o),
(639,363,c),
(642,360,o),
(644,360,o),
(646,361,c),
(647,363,o),
(647,364,o),
(646,365,c),
(644,369,o),
(630,370,o),
(586,484,cs),
(568,525,o),
(584,516,o),
(550,546,cs),
(507,583,ls),
(487,601,o),
(453,676,o),
(378,684,cs),
(294,695,o),
(287,717,o),
(156,675,cs),
(132,667,o),
(99,668,o),
(68,627,cs),
(41,593,o),
(41,505,o),
(45,332,cs),
(45,324,o),
(34,236,o),
(33,202,cs),
(32,186,o),
(33,190,o),
(66,50,c),
(64,34,ls),
(64,32,o),
(62,29,o),
(62,20,cs),
(62,12,o),
(63,9,o),
(67,4,cs),
(68,3,o),
(68,3,o),
(69,3,cs),
(303,1,l)
);
}
);
width = 660;
}
);
metricWidth = "6T60";
unicode = (71,103);
},
{
glyphname = H;
lastChange = "2023-09-21 11:14:27 +0000";
layers = (
{
layerId = m01;
shapes = (
{
closed = 1;
nodes = (
(137,0,o),
(136,0,o),
(139,0,cs),
(141,0,o),
(149,7,o),
(148,19,cs),
(147,28,o),
(90,40,o),
(89,41,c),
(83,65,l),
(80,88,l),
(86,189,l),
(93,210,l),
(126,347,ls),
(132,371,o),
(128,415,o),
(127,416,c),
(126,421,l),
(132,435,l),
(132,436,o),
(156,433,o),
(158,433,cs),
(164,432,o),
(175,432,o),
(187,432,cs),
(271,432,ls),
(283,432,o),
(294,432,o),
(300,433,cs),
(302,433,o),
(326,436,o),
(326,435,cs),
(330,416,o),
(329,426,o),
(329,398,cs),
(329,389,o),
(333,385,o),
(334,381,cs),
(341,330,l),
(371,192,ls),
(373,184,o),
(378,107,o),
(378,88,cs),
(378,81,o),
(373,47,o),
(369,41,c),
(365,37,o),
(310,20,o),
(310,14,cs),
(310,-12,o),
(412,-5,o),
(415,4,cs),
(417,10,o),
(416,27,o),
(415,31,cs),
(414,38,ls),
(410,67,o),
(428,118,o),
(428,134,cs),
(428,145,o),
(428,148,o),
(424,163,cs),
(422,171,ls),
(413,208,o),
(415,212,o),
(415,223,cs),
(416,238,o),
(417,286,o),
(419,291,cs),
(443,345,o),
(445,364,o),
(424,396,cs),
(420,402,o),
(415,424,o),
(415,425,cs),
(421,476,o),
(428,503,o),
(428,508,c),
(434,539,o),
(429,545,o),
(426,569,cs),
(425,574,o),
(424,577,o),
(423,580,cs),
(420,587,o),
(416,591,o),
(409,596,cs),
(405,598,o),
(407,600,o),
(409,600,c),
(409,600,o),
(430,603,o),
(435,608,cs),
(439,612,o),
(443,629,o),
(425,681,cs),
(412,720,o),
(348,685,o),
(343,679,cs),
(337,672,o),
(338,661,o),
(338,658,cs),
(338,652,o),
(338,644,o),
(336,637,cs),
(335,634,ls),
(334,632,o),
(333,628,o),
(334,627,cs),
(335,626,o),
(341,625,o),
(341,623,cs),
(341,618,ls),
(341,616,o),
(344,614,o),
(344,613,cs),
(345,609,o),
(347,610,o),
(347,605,cs),
(347,603,o),
(347,602,o),
(348,601,cs),
(353,596,o),
(364,599,o),
(364,597,cs),
(363,590,o),
(360,583,o),
(359,582,cs),
(358,581,o),
(342,545,o),
(338,540,c),
(331,527,o),
(327,523,o),
(327,505,cs),
(327,502,ls),
(327,497,o),
(326,496,o),
(324,491,cs),
(319,475,o),
(303,480,o),
(288,474,c),
(287,474,o),
(284,473,o),
(283,472,c),
(279,470,o),
(250,466,o),
(245,466,cs),
(241,466,o),
(239,466,o),
(236,467,cs),
(235,467,o),
(233,468,o),
(233,468,c),
(232,469,o),
(226,469,o),
(225,468,c),
(225,468,o),
(223,467,o),
(222,467,cs),
(219,466,o),
(217,466,o),
(213,466,cs),
(210,466,o),
(151,481,o),
(150,481,cs),
(146,482,ls),
(141,483,o),
(137,481,o),
(137,482,cs),
(131,506,o),
(132,509,o),
(131,513,cs),
(131,515,o),
(129,520,o),
(128,523,cs),
(97,586,o),
(96,590,o),
(94,597,c),
(94,599,o),
(107,599,o),
(110,601,cs),
(111,602,o),
(111,603,o),
(111,605,cs),
(111,611,o),
(114,607,o),
(114,613,cs),
(114,614,o),
(114,615,o),
(115,616,cs),
(118,619,o),
(115,621,o),
(118,625,c),
(122,625,o),
(127,625,o),
(124,633,cs),
(121,641,o),
(122,646,o),
(121,652,cs),
(117,676,o),
(119,681,o),
(97,691,c),
(65,710,o),
(37,695,o),
(21,638,cs),
(17,620,o),
(34,611,o),
(51,604,c),
(52,602,o),
(52,598,o),
(49,596,cs),
(42,591,o),
(38,587,o),
(35,580,cs),
(32,570,o),
(24,501,o),
(44,426,c),
(44,420,o),
(36,400,o),
(33,395,cs),
(29,389,o),
(13,368,o),
(32,319,c),
(43,212,o),
(43,209,o),
(42,204,cs),
(36,171,ls),
(34,162,o),
(30,155,o),
(32,138,cs),
(44,38,l),
(44,35,l),
(43,31,ls),
(40,20,o),
(38,1,o),
(58,1,cs),
(68,0,o),
(111,-10,o),
(130,-4,c)
);
}
);
width = 460;
}
);
unicode = (72,104);
},
{
glyphname = I;
lastChange = "2023-09-21 11:14:29 +0000";
layers = (
{
layerId = m01;
shapes = (
{
closed = 1;
nodes = (
(135,0,o),
(126,33,o),
(126,42,cs),
(126,164,ls),
(126,171,o),
(125,177,o),
(125,178,cs),
(125,201,o),
(125,210,o),
(127,216,cs),
(129,225,o),
(130,227,o),
(130,236,cs),
(130,279,o),
(131,280,o),
(136,321,cs),
(136,322,o),
(137,322,o),
(137,321,cs),
(139,305,o),
(140,306,o),
(137,240,cs),
(136,216,o),
(142,207,o),
(142,200,cs),
(145,155,o),
(141,160,o),
(143,131,cs),
(144,122,o),
(148,83,o),
(145,72,cs),
(144,70,o),
(144,65,o),
(144,63,cs),
(144,48,ls),
(144,40,o),
(143,35,o),
(143,33,c),
(138,8,o),
(138,1,o),
(145,0,cs),
(149,-1,o),
(176,2,o),
(178,6,c),
(179,7,o),
(180,9,o),
(180,11,cs),
(180,14,ls),
(180,23,o),
(170,23,o),
(170,35,cs),
(170,60,l),
(171,63,o),
(188,174,o),
(188,183,cs),
(189,254,o),
(201,300,o),
(206,303,cs),
(211,305,ls),
(228,312,o),
(234,334,o),
(233,336,c),
(232,341,o),
(232,358,o),
(233,365,cs),
(234,373,o),
(233,373,o),
(233,377,cs),
(233,407,ls),
(233,424,o),
(230,470,o),
(229,474,cs),
(228,479,o),
(228,497,o),
(229,504,cs),
(230,508,o),
(230,527,o),
(229,543,cs),
(229,553,o),
(222,583,o),
(219,586,cs),
(207,600,o),
(170,596,o),
(166,607,cs),
(164,613,ls),
(160,624,o),
(176,613,o),
(185,621,cs),
(191,625,o),
(189,641,o),
(189,652,c),
(186,670,o),
(184,686,o),
(170,704,cs),
(147,732,o),
(85,711,o),
(85,656,cs),
(85,633,ls),
(85,624,o),
(100,622,o),
(105,622,cs),
(108,622,o),
(114,619,o),
(114,613,cs),
(114,591,o),
(55,604,o),
(55,573,cs),
(55,553,o),
(45,459,o),
(45,456,cs),
(41,336,ls),
(41,314,o),
(66,316,o),
(68,305,cs),
(79,254,o),
(82,241,o),
(82,236,cs),
(82,163,ls),
(82,158,o),
(99,72,o),
(99,71,cs),
(100,54,l),
(90,17,o),
(89,12,o),
(89,11,cs),
(89,-1,o),
(117,0,o),
(129,0,cs)
);
},
{
closed = 1;
nodes = (
(60,362,o),
(56,371,o),
(56,375,cs),
(56,379,o),
(68,412,o),
(69,416,c),
(70,416,l),
(60,369,l)
);
},
{
closed = 1;
nodes = (
(81,492,l),
(82,492,o),
(85,492,o),
(85,483,cs),
(85,480,o),
(78,433,o),
(74,433,c)
);
},
{
closed = 1;
nodes = (
(216,362,o),
(215,362,o),
(215,366,cs),
(215,377,o),
(211,383,o),
(210,394,cs),
(209,412,l),
(210,411,l),
(216,386,l),
(218,373,ls),
(219,367,o),
(218,367,o),
(217,365,cs)
);
},
{
closed = 1;
nodes = (
(206,420,o),
(205,431,o),
(201,435,cs),
(199,438,o),
(198,443,o),
(197,450,cs),
(197,453,o),
(193,490,o),
(197,490,cs),
(198,490,l),
(198,478,ls),
(198,458,o),
(206,436,o),
(206,431,cs)
);
}
);
width = 275;
}
);
unicode = (73,105);
},
{
glyphname = J;
lastChange = "2023-09-21 11:14:32 +0000";
layers = (
{
layerId = m01;
shapes = (
{
closed = 1;
nodes = (
(290,63,ls),
(301,115,o),
(292,128,o),
(294,130,cs),
(301,137,o),
(299,163,o),
(301,168,cs),
(319,214,ls),
(340,270,o),
(293,367,o),
(293,393,c),
(292,398,o),
(292,403,o),
(293,408,cs),
(294,414,o),
(294,421,o),
(294,427,cs),
(294,456,o),
(291,542,o),
(283,571,c),
(282,583,o),
(281,596,o),
(286,603,c),
(302,619,o),
(300,630,o),
(276,638,cs),
(271,639,o),
(268,639,o),
(267,642,cs),
(255,672,ls),
(241,709,o),
(213,710,o),
(213,692,cs),
(213,630,o),
(220,631,o),
(221,627,cs),
(242,541,ls),
(244,534,o),
(241,516,o),
(241,507,cs),
(235,437,o),
(236,460,o),
(230,414,cs),
(227,399,ls),
(213,296,o),
(221,289,o),
(224,242,cs),
(225,208,o),
(183,161,o),
(179,160,c),
(161,152,o),
(164,157,o),
(148,143,cs),
(143,139,ls),
(135,133,o),
(130,112,o),
(125,112,cs),
(117,112,ls),
(116,112,o),
(106,125,o),
(105,127,c),
(102,130,o),
(98,131,o),
(92,131,cs),
(88,131,o),
(89,137,o),
(85,137,cs),
(84,137,o),
(74,137,o),
(70,139,cs),
(68,140,o),
(63,140,o),
(63,137,cs),
(63,135,ls),
(63,130,o),
(46,133,o),
(21,112,cs),
(-4,90,o),
(12,51,o),
(26,43,cs),
(85,10,o),
(92,34,o),
(101,23,c),
(230,-9,o),
(277,-2,o),
(279,8,cs)
);
},
{
closed = 1;
nodes = (
(220,49,l),
(219,50,o),
(253,82,o),
(253,84,c),
(254,84,l),
(237,44,l)
);
}
);
width = 365;
}
);
unicode = (74,106);
},
{
glyphname = K;
lastChange = "2023-09-21 11:14:35 +0000";
layers = (
{
layerId = m01;
shapes = (
{
closed = 1;
nodes = (
(305,8,o),
(305,1,o),
(299,10,cs),
(297,14,o),
(271,54,o),
(267,59,cs),
(264,62,o),
(259,68,o),
(188,206,c),
(188,206,o),
(192,208,o),
(184,233,cs),
(153,330,l),
(153,331,o),
(130,377,o),
(130,378,cs),
(130,379,o),
(133,404,o),
(127,434,cs),
(120,467,o),
(128,468,o),
(128,468,c),
(129,468,o),
(185,442,o),
(193,452,cs),
(258,532,o),
(261,534,o),
(262,537,cs),
(278,583,o),
(283,590,o),
(284,590,cs),
(285,590,o),
(290,598,o),
(290,599,c),
(289,601,o),
(288,605,o),
(284,602,cs),
(282,601,o),
(246,549,o),
(245,548,c),
(240,546,l),
(183,490,l),
(127,541,o),
(106,567,o),
(103,571,c),
(94,589,o),
(97,584,o),
(97,611,cs),
(97,619,o),
(115,611,o),
(120,616,cs),
(123,619,o),
(119,620,o),
(124,625,cs),
(126,627,o),
(124,630,o),
(126,630,cs),
(127,630,o),
(127,635,o),
(127,635,c),
(128,641,o),
(130,638,o),
(133,641,cs),
(136,644,o),
(130,648,o),
(130,656,c),
(131,660,l),
(132,668,l),
(126,669,o),
(125,669,o),
(125,671,cs),
(124,677,o),
(123,684,o),
(116,695,cs),
(108,710,o),
(50,714,o),
(42,697,cs),
(33,673,o),
(30,648,o),
(27,622,c),
(42,622,o),
(43,610,o),
(37,594,cs),
(28,569,ls),
(23,556,o),
(25,539,o),
(25,535,cs),
(32,470,o),
(33,492,o),
(38,427,cs),
(38,422,o),
(23,385,o),
(23,380,cs),
(20,339,o),
(35,328,o),
(35,287,cs),
(37,217,l),
(34,204,ls),
(14,117,o),
(37,137,o),
(27,40,cs),
(25,20,ls),
(24,6,o),
(52,6,o),
(66,7,c),
(118,4,ls),
(120,4,o),
(127,11,o),
(127,12,cs),
(128,16,ls),
(128,17,o),
(64,48,o),
(64,62,cs),
(63,120,l),
(74,185,ls),
(74,186,o),
(74,186,o),
(75,187,cs),
(79,191,ls),
(80,192,o),
(86,203,o),
(97,255,c),
(102,269,o),
(103,269,o),
(104,268,cs),
(106,265,ls),
(108,262,o),
(104,268,o),
(149,187,c),
(155,165,o),
(192,107,o),
(192,106,c),
(211,76,l),
(211,74,o),
(212,73,o),
(212,72,cs),
(212,71,o),
(213,71,o),
(213,69,cs),
(212,23,o),
(248,33,o),
(252,22,c),
(256,0,o),
(271,-4,o),
(305,0,c)
);
}
);
width = 310;
}
);
unicode = (75,107);
},
{
glyphname = L;
lastChange = "2023-09-21 11:14:37 +0000";
layers = (
{
layerId = m01;
shapes = (
{
closed = 1;
nodes = (
(233,0,o),
(234,1,o),
(237,5,cs),
(239,7,o),
(240,8,o),
(240,10,cs),
(240,13,o),
(239,14,o),
(237,14,cs),
(236,14,o),
(234,15,o),
(231,17,cs),
(228,19,o),
(178,36,o),
(169,50,cs),
(161,62,o),
(157,77,o),
(154,94,cs),
(144,151,o),
(152,111,o),
(143,169,c),
(138,188,o),
(140,185,o),
(140,203,cs),
(140,207,o),
(139,234,o),
(140,248,cs),
(140,277,o),
(138,323,o),
(136,330,cs),
(133,343,ls),
(132,346,o),
(128,361,o),
(127,363,cs),
(117,390,o),
(133,431,o),
(125,468,cs),
(124,474,o),
(125,479,o),
(126,483,cs),
(128,491,ls),
(136,525,o),
(100,578,o),
(93,585,cs),
(92,586,o),
(91,586,o),
(91,591,cs),
(91,596,l),
(91,596,o),
(92,610,o),
(105,612,cs),
(113,613,o),
(113,613,o),
(115,615,cs),
(117,618,o),
(117,624,o),
(119,626,cs),
(120,627,o),
(122,634,o),
(122,636,cs),
(122,640,l),
(123,640,o),
(123,640,o),
(126,642,cs),
(128,643,o),
(129,644,o),
(129,645,cs),
(129,646,o),
(129,647,o),
(128,648,cs),
(125,652,o),
(125,652,o),
(122,655,c),
(122,658,l),
(123,669,l),
(120,669,l),
(118,679,o),
(121,692,o),
(108,698,cs),
(90,706,o),
(24,715,o),
(24,643,cs),
(24,603,o),
(52,612,o),
(51,607,c),
(47,603,ls),
(31,587,o),
(24,561,o),
(24,549,cs),
(24,530,o),
(34,516,o),
(37,497,cs),
(38,490,ls),
(42,462,o),
(45,427,o),
(31,398,c),
(18,377,o),
(18,346,o),
(25,325,c),
(42,291,o),
(44,227,o),
(34,185,cs),
(30,171,o),
(25,158,o),
(25,152,c),
(21,126,o),
(39,61,o),
(33,36,cs),
(32,30,o),
(29,19,o),
(31,12,cs),
(33,5,o),
(75,4,o),
(82,3,cs),
(108,-1,o),
(140,-4,o),
(164,8,c),
(170,10,o),
(181,11,o),
(187,9,cs),
(209,1,o),
(202,6,o),
(220,1,c)
);
},
{
closed = 1;
nodes = (
(130,25,o),
(75,49,o),
(71,68,cs),
(70,72,o),
(70,81,o),
(70,86,cs),
(76,136,ls),
(76,140,o),
(92,192,o),
(92,193,cs),
(95,208,o),
(98,200,o),
(98,179,cs),
(98,157,o),
(98,147,o),
(100,139,cs),
(109,98,o),
(136,67,o),
(131,26,c)
);
}
);
width = 250;
}
);
unicode = (76,108);
},
{
glyphname = M;
lastChange = "2023-09-21 11:14:40 +0000";
layers = (
{
layerId = m01;
shapes = (
{
closed = 1;
nodes = (
(105,-5,o),
(153,3,o),
(154,4,cs),
(155,5,o),
(159,18,o),
(154,25,cs),
(151,29,o),
(89,15,o),
(91,70,cs),
(94,157,l),
(123,325,ls),
(127,349,o),
(122,361,o),
(122,363,cs),
(122,368,o),
(131,385,o),
(133,399,cs),
(136,410,o),
(127,461,o),
(123,472,c),
(123,473,o),
(122,475,o),
(122,475,c),
(127,480,l),
(127,479,o),
(169,446,o),
(173,443,cs),
(177,441,o),
(224,415,o),
(227,411,cs),
(229,407,o),
(231,405,o),
(237,401,cs),
(239,399,o),
(241,398,o),
(245,395,cs),
(247,393,o),
(249,392,o),
(251,391,c),
(252,391,o),
(254,390,o),
(255,389,c),
(256,389,o),
(252,380,o),
(252,379,c),
(251,379,o),
(251,378,o),
(251,378,c),
(250,378,o),
(251,378,o),
(251,377,c),
(253,377,l),
(255,376,o),
(255,376,o),
(267,381,cs),
(269,382,o),
(271,382,o),
(273,381,cs),
(274,380,o),
(286,376,o),
(287,377,c),
(289,377,o),
(290,377,o),
(290,378,cs),
(290,379,o),
(288,381,o),
(286,382,cs),
(284,383,o),
(283,384,o),
(282,387,c),
(290,391,l),
(296,395,l),
(296,396,o),
(298,397,o),
(299,398,c),
(300,398,o),
(302,400,o),
(303,401,c),
(310,405,o),
(311,407,o),
(314,411,cs),
(315,413,o),
(317,415,o),
(320,416,c),
(322,418,o),
(327,421,o),
(328,421,c),
(397,465,ls),
(403,469,o),
(413,479,o),
(414,480,c),
(416,477,o),
(418,477,o),
(417,473,cs),
(414,448,o),
(406,411,o),
(407,398,cs),
(407,370,o),
(418,374,o),
(418,346,c),
(440,207,l),
(444,196,o),
(446,191,o),
(446,188,cs),
(446,110,l),
(440,40,ls),
(440,38,o),
(417,26,o),
(416,26,c),
(387,18,l),
(385,17,o),
(387,16,o),
(387,14,cs),
(387,12,ls),
(387,10,o),
(388,9,o),
(389,8,cs),
(391,7,o),
(391,7,o),
(391,5,cs),
(391,-5,o),
(484,-2,o),
(486,8,cs),
(489,31,o),
(487,32,o),
(487,33,cs),
(501,111,ls),
(503,123,o),
(503,128,o),
(503,137,cs),
(501,173,o),
(494,181,o),
(494,191,cs),
(494,196,ls),
(494,200,o),
(493,203,o),
(492,219,cs),
(492,231,o),
(493,233,o),
(493,239,c),
(513,352,ls),
(514,358,o),
(514,366,o),
(513,369,c),
(512,377,o),
(496,431,o),
(496,432,cs),
(494,497,o),
(509,531,o),
(510,532,cs),
(511,533,o),
(515,540,o),
(516,542,cs),
(517,545,o),
(518,548,o),
(518,551,cs),
(518,556,o),
(504,597,o),
(500,601,c),
(496,607,o),
(484,608,o),
(488,612,cs),
(489,613,o),
(490,614,o),
(509,614,cs),
(511,614,o),
(512,638,o),
(512,643,cs),
(518,712,o),
(419,718,o),
(419,667,cs),
(419,662,o),
(416,659,o),
(414,657,c),
(414,649,l),
(417,646,o),
(410,640,o),
(410,637,cs),
(410,636,o),
(413,634,o),
(415,634,cs),
(418,634,o),
(419,632,o),
(419,629,cs),
(419,628,o),
(419,626,o),
(421,625,c),
(421,623,ls),
(421,622,o),
(421,621,o),
(423,620,c),
(425,617,l),
(426,613,ls),
(426,612,o),
(431,607,o),
(441,607,cs),
(446,607,o),
(446,606,o),
(446,600,cs),
(446,596,l),
(440,590,ls),
(376,526,o),
(394,532,o),
(375,506,c),
(325,454,o),
(323,451,o),
(322,450,cs),
(318,446,ls),
(276,404,o),
(280,406,o),
(271,397,cs),
(270,396,l),
(269,397,l),
(269,403,o),
(189,474,o),
(171,492,cs),
(124,541,o),
(94,588,o),
(94,590,cs),
(94,593,o),
(94,597,o),
(96,599,c),
(116,603,o),
(116,601,o),
(122,619,cs),
(124,624,o),
(123,624,o),
(126,624,cs),
(127,624,o),
(131,624,o),
(130,628,cs),
(129,635,o),
(126,637,o),
(126,639,cs),
(126,650,ls),
(126,651,o),
(126,651,o),
(124,651,c),
(121,671,ls),
(117,696,o),
(86,698,o),
(82,698,cs),
(35,698,o),
(30,655,o),
(28,632,cs),
(28,628,o),
(28,626,o),
(27,621,cs),
(26,617,l),
(28,617,l),
(28,613,l),
(50,603,o),
(51,603,o),
(52,602,cs),
(54,600,o),
(54,599,o),
(51,598,c),
(39,598,o),
(23,556,o),
(23,546,c),
(22,541,o),
(22,539,o),
(23,537,cs),
(24,533,o),
(28,532,o),
(30,523,cs),
(48,428,ls),
(48,427,o),
(48,426,o),
(31,384,cs),
(29,379,o),
(27,375,o),
(27,368,cs),
(27,353,l),
(48,206,ls),
(48,203,o),
(47,200,o),
(47,196,cs),
(47,194,o),
(46,192,o),
(46,191,cs),
(46,188,o),
(45,184,o),
(45,184,c),
(43,175,ls),
(42,172,o),
(39,160,o),
(39,156,cs),
(38,149,o),
(37,145,o),
(37,137,cs),
(37,128,o),
(38,125,o),
(51,61,cs),
(53,53,o),
(53,48,o),
(53,41,cs),
(52,13,o),
(46,6,o),
(73,1,cs)
);
}
);
width = 550;
}
);
unicode = (77,109);
},
{
glyphname = N;
lastChange = "2023-09-21 11:14:43 +0000";
layers = (
{
layerId = m01;
shapes = (
{
closed = 1;
nodes = (
(156,-1,o),
(151,9,o),
(150,10,c),
(146,12,l),
(145,12,o),
(90,39,o),
(89,41,cs),
(88,42,o),
(85,51,o),
(85,53,cs),
(91,177,ls),
(91,180,o),
(98,194,o),
(101,201,cs),
(122,265,o),
(116,269,o),
(122,311,cs),
(125,335,o),
(121,339,o),
(121,356,c),
(129,388,o),
(130,394,o),
(130,400,c),
(131,404,o),
(114,487,o),
(120,480,cs),
(194,400,ls),
(211,382,o),
(212,376,o),
(283,253,cs),
(290,242,o),
(302,235,o),
(306,223,cs),
(336,152,l),
(336,151,o),
(350,115,o),
(348,101,cs),
(347,97,o),
(339,106,o),
(336,105,cs),
(308,94,ls),
(283,84,o),
(281,37,o),
(311,23,cs),
(325,17,o),
(339,11,o),
(352,11,cs),
(373,10,o),
(401,6,o),
(419,24,cs),
(426,31,o),
(443,54,o),
(450,61,cs),
(477,85,o),
(478,116,o),
(500,145,cs),
(528,181,o),
(538,200,o),
(541,228,cs),
(546,270,o),
(529,299,o),
(528,320,cs),
(526,367,o),
(512,458,o),
(512,474,cs),
(512,610,o),
(519,606,o),
(522,611,cs),
(527,620,ls),
(528,622,o),
(528,625,o),
(527,627,cs),
(526,628,o),
(525,630,o),
(523,632,cs),
(493,666,o),
(514,643,o),
(499,659,cs),
(497,661,o),
(491,688,o),
(489,690,cs),
(478,698,ls),
(476,699,o),
(472,667,o),
(473,659,cs),
(482,599,l),
(458,438,l),
(450,385,ls),
(434,279,o),
(447,216,o),
(439,196,cs),
(427,167,l),
(419,164,l),
(409,154,l),
(366,208,o),
(363,212,o),
(361,214,c),
(94,588,l),
(94,596,l),
(94,596,o),
(106,595,o),
(108,597,cs),
(109,598,o),
(109,599,o),
(110,602,cs),
(111,605,l),
(113,607,ls),
(115,609,o),
(115,609,o),
(115,610,cs),
(115,612,o),
(116,615,o),
(118,615,c),
(119,620,o),
(119,620,o),
(121,620,cs),
(129,620,o),
(122,624,o),
(122,633,cs),
(122,634,o),
(123,647,o),
(120,649,c),
(119,649,l),
(119,653,ls),
(119,661,o),
(119,664,o),
(118,666,cs),
(84,729,o),
(20,697,o),
(20,639,cs),
(19,616,l),
(19,609,l),
(29,612,o),
(27,608,o),
(46,600,c),
(48,598,l),
(48,594,o),
(44,598,o),
(34,592,cs),
(30,590,o),
(23,578,o),
(23,574,cs),
(19,533,ls),
(18,494,o),
(53,465,o),
(34,417,cs),
(18,376,ls),
(14,363,o),
(14,352,o),
(18,339,cs),
(31,293,l),
(36,188,ls),
(36,186,o),
(25,124,o),
(26,116,cs),
(26,111,o),
(27,104,o),
(40,43,cs),
(41,37,o),
(40,21,o),
(40,18,cs),
(40,-16,o),
(61,-1,o),
(151,-1,cs)
);
}
);
width = 560;
}
);
unicode = (78,110);
},
{
glyphname = O;
lastChange = "2023-09-21 11:14:45 +0000";
layers = (
{
layerId = m01;
shapes = (
{
closed = 1;
nodes = (
(156,-2,o),
(274,-8,o),
(300,7,cs),
(392,58,o),
(459,320,o),
(440,356,cs),
(325,585,ls),
(320,596,o),
(264,652,o),
(256,665,cs),
(255,667,o),
(249,673,o),
(222,677,cs),
(220,677,o),
(220,677,o),
(215,672,c),
(214,670,o),
(213,671,o),
(213,672,c),
(194,678,o),
(190,679,o),
(189,679,cs),
(188,679,o),
(186,679,o),
(183,678,cs),
(175,674,ls),
(169,671,o),
(168,672,o),
(163,666,c),
(115,622,l),
(112,620,o),
(110,618,o),
(110,617,c),
(20,418,ls),
(5,383,o),
(6,354,o),
(7,325,cs),
(9,269,ls),
(16,70,o),
(85,22,o),
(144,2,cs)
);
},
{
closed = 1;
nodes = (
(141,134,o),
(127,174,o),
(127,174,c),
(99,282,ls),
(99,283,o),
(98,285,o),
(98,289,c),
(97,291,o),
(91,322,o),
(88,329,cs),
(84,337,o),
(83,347,o),
(86,356,cs),
(92,369,o),
(110,442,o),
(111,463,cs),
(112,480,o),
(125,561,o),
(131,567,c),
(132,570,o),
(133,570,o),
(146,577,cs),
(151,580,o),
(157,588,o),
(157,596,cs),
(157,598,o),
(157,600,o),
(158,600,c),
(196,618,o),
(198,618,o),
(202,624,cs),
(206,629,o),
(210,633,o),
(220,638,c),
(221,640,o),
(222,640,o),
(222,639,c),
(223,639,o),
(221,634,o),
(225,628,cs),
(247,598,ls),
(249,595,o),
(244,583,o),
(246,578,cs),
(250,566,o),
(253,570,o),
(283,556,c),
(284,556,o),
(292,546,o),
(292,545,c),
(336,418,o),
(289,479,o),
(362,357,c),
(366,353,o),
(367,351,o),
(366,346,cs),
(347,263,ls),
(339,223,o),
(249,105,o),
(216,113,cs)
);
}
);
width = 454;
}
);
unicode = (79,111);
},
{
glyphname = P;
lastChange = "2023-09-21 11:14:49 +0000";
layers = (
{
layerId = m01;
shapes = (
{
closed = 1;
nodes = (
(137,-1,o),
(149,2,o),
(150,2,cs),
(152,2,o),
(154,3,o),
(155,7,c),
(155,12,o),
(163,12,o),
(160,17,c),
(143,18,o),
(109,38,o),
(103,40,cs),
(95,44,o),
(89,53,o),
(84,64,cs),
(80,75,o),
(79,85,o),
(80,125,cs),
(83,206,o),
(87,163,o),
(93,201,cs),
(94,207,o),
(124,357,o),
(117,406,cs),
(114,426,o),
(123,459,o),
(123,470,cs),
(121,516,o),
(192,462,o),
(231,455,c),
(237,457,o),
(248,473,o),
(258,483,cs),
(266,493,o),
(266,496,o),
(273,507,c),
(289,527,o),
(291,531,o),
(292,533,cs),
(294,537,o),
(295,555,o),
(294,559,cs),
(294,561,o),
(292,569,o),
(293,589,cs),
(293,604,o),
(285,615,o),
(275,627,c),
(265,636,o),
(267,632,o),
(261,636,cs),
(240,649,ls),
(232,654,o),
(214,671,o),
(206,679,cs),
(200,685,ls),
(192,693,o),
(161,712,o),
(149,714,cs),
(146,714,o),
(143,718,o),
(139,716,cs),
(114,699,o),
(117,694,o),
(75,681,c),
(68,680,o),
(63,677,o),
(55,669,cs),
(44,658,o),
(44,658,o),
(42,645,cs),
(41,638,o),
(40,634,o),
(39,633,cs),
(34,628,ls),
(28,622,o),
(23,613,o),
(22,607,cs),
(16,581,o),
(6,529,o),
(10,502,cs),
(11,493,o),
(14,485,o),
(18,475,cs),
(22,467,o),
(28,445,o),
(28,441,cs),
(28,416,o),
(12,395,o),
(9,357,cs),
(8,341,o),
(36,226,o),
(38,213,cs),
(41,193,o),
(35,167,o),
(31,152,cs),
(23,124,o),
(49,53,o),
(49,24,cs),
(49,10,o),
(46,7,o),
(76,6,cs),
(87,6,o),
(124,-7,o),
(135,-3,c)
);
},
{
closed = 1;
nodes = (
(192,507,o),
(146,531,o),
(133,538,c),
(128,542,o),
(124,543,o),
(123,543,cs),
(108,543,o),
(85,576,o),
(103,582,c),
(104,582,o),
(129,587,o),
(129,592,cs),
(129,593,o),
(128,594,o),
(128,594,c),
(127,595,o),
(127,597,o),
(128,600,cs),
(130,607,o),
(132,613,o),
(132,617,cs),
(132,619,o),
(129,626,o),
(132,630,cs),
(133,631,o),
(136,642,o),
(137,642,c),
(138,643,o),
(138,645,o),
(133,647,cs),
(128,649,l),
(128,654,ls),
(128,659,o),
(127,659,o),
(134,668,cs),
(140,675,o),
(164,669,o),
(184,663,cs),
(195,661,o),
(211,657,o),
(211,645,cs),
(212,638,o),
(218,628,o),
(226,619,cs),
(229,616,o),
(234,618,o),
(234,623,cs),
(234,627,o),
(235,627,o),
(238,626,cs),
(242,625,o),
(246,619,o),
(248,612,cs),
(250,608,o),
(252,605,o),
(255,607,cs),
(256,608,o),
(256,608,o),
(259,607,cs),
(261,606,o),
(267,595,o),
(271,590,c),
(284,566,o),
(275,568,o),
(272,574,cs),
(267,583,o),
(266,585,o),
(264,581,c),
(258,574,o),
(281,555,o),
(275,541,cs),
(272,532,o),
(264,526,o),
(249,514,c),
(222,488,o),
(222,486,o),
(205,497,cs)
);
},
{
closed = 1;
nodes = (
(128,629,o),
(127,630,o),
(127,632,cs),
(127,635,o),
(128,635,o),
(130,637,cs),
(137,644,o),
(133,629,o),
(128,629,c)
);
},
{
closed = 1;
nodes = (
(127,638,o),
(125,643,o),
(125,646,c),
(127,647,o),
(127,647,o),
(130,646,c),
(131,645,o),
(132,643,o),
(132,642,cs),
(132,641,o),
(130,638,o),
(128,638,cs)
);
},
{
closed = 1;
nodes = (
(283,593,o),
(282,593,o),
(280,596,cs),
(277,599,o),
(272,608,o),
(266,616,c),
(259,629,o),
(272,621,o),
(278,616,c),
(280,615,o),
(282,613,o),
(282,612,cs),
(286,596,l),
(285,595,ls)
);
}
);
width = 300;
}
);
unicode = (80,112);
},
{
glyphname = Q;
lastChange = "2023-09-21 11:14:51 +0000";
layers = (
{
layerId = m01;
shapes = (
{
closed = 1;
nodes = (
(231,-38,o),
(395,58,o),
(462,94,c),
(462,95,o),
(480,100,o),
(483,99,c),
(484,90,l),
(494,80,ls),
(496,78,o),
(512,79,o),
(513,79,c),
(524,93,o),
(514,94,o),
(544,159,c),
(544,170,l),
(530,234,ls),
(521,272,o),
(488,258,o),
(483,269,c),
(479,269,o),
(479,292,o),
(480,301,cs),
(481,305,o),
(481,312,o),
(481,333,cs),
(481,360,l),
(479,364,l),
(476,367,o),
(475,370,o),
(474,371,c),
(444,448,l),
(424,484,l),
(375,554,o),
(351,595,o),
(350,599,cs),
(349,601,o),
(348,604,o),
(348,605,cs),
(347,608,o),
(339,619,o),
(337,620,c),
(337,621,o),
(335,622,o),
(334,624,cs),
(333,626,o),
(327,632,o),
(321,638,cs),
(285,674,l),
(275,691,o),
(272,695,o),
(270,695,c),
(269,696,o),
(268,697,o),
(266,697,c),
(247,710,o),
(233,696,o),
(233,696,c),
(232,694,o),
(225,699,o),
(224,699,c),
(215,707,o),
(202,702,o),
(191,698,cs),
(185,696,o),
(168,681,o),
(110,623,c),
(110,622,o),
(107,619,o),
(107,618,cs),
(107,621,o),
(12,337,o),
(16,297,cs),
(36,111,ls),
(40,78,o),
(53,35,o),
(124,6,cs)
);
},
{
closed = 1;
nodes = (
(189,140,o),
(190,179,o),
(201,179,c),
(241,188,l),
(271,181,ls),
(277,180,o),
(287,178,o),
(289,176,cs),
(290,175,o),
(290,175,o),
(289,163,cs),
(289,161,o),
(270,138,o),
(267,139,c),
(203,138,l)
);
},
{
closed = 1;
nodes = (
(152,200,o),
(151,201,o),
(150,201,c),
(149,202,o),
(141,208,o),
(94,317,cs),
(90,326,o),
(98,358,o),
(101,367,cs),
(102,369,o),
(102,371,o),
(103,373,c),
(105,381,l),
(105,383,o),
(123,453,o),
(124,477,cs),
(125,495,o),
(126,498,o),
(129,524,cs),
(137,571,o),
(139,576,o),
(141,580,c),
(143,582,o),
(144,585,o),
(145,586,c),
(146,589,o),
(147,589,o),
(152,591,c),
(160,596,ls),
(162,597,o),
(168,603,o),
(169,606,c),
(171,608,o),
(172,613,o),
(172,616,cs),
(172,618,o),
(172,620,o),
(173,620,c),
(176,622,l),
(178,622,o),
(218,644,o),
(219,646,c),
(219,649,o),
(227,656,o),
(231,656,c),
(243,650,l),
(244,647,o),
(247,642,o),
(249,641,c),
(263,630,o),
(265,628,o),
(266,628,c),
(267,626,o),
(268,625,o),
(267,623,c),
(267,621,o),
(267,619,o),
(266,618,cs),
(264,615,o),
(264,603,o),
(265,597,cs),
(266,593,ls),
(266,592,o),
(267,591,o),
(269,588,c),
(274,584,o),
(276,582,o),
(287,580,c),
(289,579,o),
(294,578,o),
(297,577,cs),
(304,574,l),
(314,560,l),
(380,377,ls),
(382,371,o),
(395,361,o),
(394,356,cs),
(394,350,o),
(388,341,o),
(388,340,c),
(341,229,l),
(339,229,o),
(337,229,o),
(333,231,c),
(202,257,o),
(236,259,o),
(189,254,c),
(153,200,l)
);
}
);
width = 550;
}
);
unicode = (81,113);
},
{
glyphname = R;
lastChange = "2023-09-21 11:14:54 +0000";
layers = (
{
layerId = m01;
shapes = (
{
closed = 1;
nodes = (
(358,-6,o),
(359,-5,o),
(360,-1,cs),
(360,1,o),
(359,2,o),
(357,2,c),
(355,3,o),
(338,24,o),
(320,42,c),
(291,80,o),
(318,48,o),
(297,72,cs),
(290,80,ls),
(288,82,o),
(287,89,o),
(286,91,cs),
(268,133,o),
(230,187,o),
(218,212,cs),
(192,266,o),
(175,298,o),
(115,405,cs),
(113,409,o),
(112,415,o),
(112,420,cs),
(112,438,o),
(121,461,o),
(121,469,cs),
(120,482,o),
(126,487,o),
(135,487,cs),
(158,487,o),
(201,460,o),
(229,455,c),
(235,457,o),
(246,473,o),
(256,483,cs),
(264,493,o),
(264,496,o),
(271,507,cs),
(286,527,o),
(288,531,o),
(289,533,cs),
(290,536,o),
(291,546,o),
(291,553,cs),
(291,559,ls),
(291,561,o),
(290,566,o),
(290,578,cs),
(290,589,ls),
(290,604,o),
(282,615,o),
(272,627,c),
(262,636,o),
(264,632,o),
(258,636,cs),
(237,649,ls),
(229,654,o),
(211,671,o),
(203,679,cs),
(197,685,ls),
(189,693,o),
(157,711,o),
(145,713,cs),
(143,713,o),
(140,716,o),
(137,716,c),
(137,716,o),
(136,715,o),
(135,715,c),
(111,698,o),
(114,693,o),
(72,680,c),
(65,679,o),
(60,676,o),
(52,668,cs),
(41,657,o),
(41,657,o),
(39,644,cs),
(38,637,o),
(37,633,o),
(36,632,cs),
(31,627,ls),
(25,621,o),
(20,612,o),
(19,606,cs),
(14,584,o),
(6,544,o),
(6,516,cs),
(6,510,o),
(7,505,o),
(8,501,cs),
(9,492,o),
(12,484,o),
(16,474,cs),
(20,466,o),
(26,444,o),
(26,440,cs),
(26,415,o),
(10,394,o),
(7,356,cs),
(6,340,o),
(35,225,o),
(37,212,cs),
(40,192,o),
(34,166,o),
(30,151,cs),
(29,147,o),
(28,143,o),
(28,138,cs),
(29,105,o),
(49,48,o),
(49,23,cs),
(49,9,o),
(46,6,o),
(76,5,cs),
(87,5,o),
(124,-8,o),
(135,-4,c),
(137,-2,o),
(149,1,o),
(150,1,cs),
(152,1,o),
(154,2,o),
(155,6,cs),
(155,10,o),
(161,11,o),
(161,14,cs),
(161,15,o),
(160,15,o),
(160,16,c),
(143,17,o),
(109,37,o),
(103,39,cs),
(95,43,o),
(89,52,o),
(84,63,cs),
(80,74,o),
(79,84,o),
(79,124,cs),
(82,205,o),
(86,162,o),
(92,200,c),
(93,203,o),
(90,239,o),
(97,285,c),
(165,201,ls),
(166,200,o),
(171,193,o),
(171,192,cs),
(173,179,ls),
(176,162,o),
(189,142,o),
(190,141,cs),
(271,44,ls),
(273,42,o),
(271,38,o),
(272,34,cs),
(276,12,o),
(302,12,o),
(304,12,cs),
(306,12,o),
(337,1,o),
(338,0,cs),
(342,-3,ls),
(346,-6,o),
(350,-8,o),
(355,-7,cs)
);
},
{
closed = 1;
nodes = (
(213,491,o),
(209,493,o),
(203,497,cs),
(190,506,o),
(143,530,o),
(130,537,c),
(125,541,o),
(121,542,o),
(120,542,cs),
(109,542,o),
(93,560,o),
(93,572,cs),
(93,576,o),
(95,579,o),
(100,581,c),
(101,581,o),
(126,586,o),
(126,591,cs),
(126,592,o),
(125,593,o),
(125,593,c),
(124,594,o),
(124,596,o),
(125,599,cs),
(127,606,o),
(129,612,o),
(129,616,cs),
(129,617,o),
(128,621,o),
(128,624,cs),
(128,626,o),
(128,628,o),
(129,629,cs),
(130,630,o),
(133,641,o),
(134,641,c),
(135,642,o),
(135,644,o),
(130,646,cs),
(125,648,l),
(125,653,ls),
(125,658,o),
(124,658,o),
(131,667,cs),
(133,669,o),
(137,670,o),
(142,670,cs),
(152,670,o),
(167,666,o),
(181,662,cs),
(192,660,o),
(208,657,o),
(208,645,cs),
(209,638,o),
(215,628,o),
(223,619,cs),
(226,616,o),
(231,618,o),
(231,623,cs),
(231,627,o),
(232,627,o),
(235,626,cs),
(239,625,o),
(243,619,o),
(245,612,cs),
(247,608,o),
(249,605,o),
(252,607,cs),
(253,608,o),
(253,608,o),
(256,607,cs),
(258,606,o),
(264,595,o),
(268,590,c),
(273,581,o),
(275,575,o),
(275,572,cs),
(275,571,o),
(274,570,o),
(273,570,cs),
(272,570,o),
(270,572,o),
(269,574,cs),
(266,580,o),
(264,583,o),
(263,583,cs),
(262,583,o),
(262,582,o),
(261,581,cs),
(256,575,o),
(273,559,o),
(273,546,cs),
(273,534,o),
(264,528,o),
(246,514,c),
(230,498,o),
(224,491,o),
(217,491,cs)
);
},
{
closed = 1;
nodes = (
(125,628,o),
(124,629,o),
(124,631,cs),
(124,634,o),
(125,634,o),
(127,636,cs),
(134,643,o),
(130,628,o),
(125,628,c)
);
},
{
closed = 1;
nodes = (
(124,637,o),
(122,642,o),
(122,645,c),
(124,646,o),
(124,646,o),
(127,645,c),
(128,644,o),
(129,642,o),
(129,641,cs),
(129,640,o),
(127,637,o),
(125,637,cs)
);
},
{
closed = 1;
nodes = (
(280,593,o),
(279,593,o),
(277,596,cs),
(274,599,o),
(269,608,o),
(263,616,c),
(256,629,o),
(269,621,o),
(275,616,c),
(277,615,o),
(279,613,o),
(279,612,cs),
(283,596,l),
(282,595,ls)
);
}
);
width = 370;
}
);
unicode = (82,114);
},
{
glyphname = S;
lastChange = "2023-09-21 11:14:56 +0000";
layers = (
{
layerId = m01;
shapes = (
{
closed = 1;
nodes = (
(353,0,o),
(392,25,o),
(383,52,cs),
(304,298,o),
(261,322,o),
(252,349,cs),
(225,427,ls),
(220,441,o),
(232,464,o),
(235,473,cs),
(244,498,o),
(239,550,o),
(240,557,cs),
(240,560,o),
(249,571,o),
(252,571,c),
(272,576,o),
(283,598,o),
(299,602,cs),
(433,635,o),
(449,618,o),
(472,597,c),
(474,594,o),
(466,583,o),
(465,576,c),
(463,573,l),
(463,570,o),
(467,560,o),
(467,557,cs),
(467,556,o),
(469,557,o),
(470,557,c),
(473,560,o),
(474,561,o),
(474,566,cs),
(474,568,l),
(484,562,ls),
(486,561,o),
(487,555,o),
(488,551,cs),
(497,513,o),
(500,511,o),
(502,511,cs),
(504,511,ls),
(509,511,o),
(506,516,o),
(506,520,cs),
(506,612,o),
(505,617,o),
(503,619,c),
(468,636,ls),
(387,679,o),
(344,670,o),
(343,670,cs),
(340,669,o),
(334,669,o),
(334,671,cs),
(337,711,o),
(240,721,o),
(219,653,c),
(216,650,o),
(207,648,o),
(205,647,c),
(165,636,o),
(132,568,o),
(129,525,cs),
(118,367,o),
(144,450,o),
(149,291,cs),
(151,238,o),
(214,195,o),
(230,172,cs),
(295,80,ls),
(296,79,o),
(298,76,o),
(295,75,c),
(277,73,o),
(211,80,o),
(179,70,cs),
(125,53,o),
(117,49,o),
(110,64,cs),
(106,72,o),
(92,69,o),
(89,66,cs),
(68,47,l),
(67,46,l),
(20,26,l),
(20,24,l),
(19,24,o),
(13,23,o),
(12,21,c),
(12,16,o),
(-14,26,o),
(18,6,c),
(19,5,o),
(84,7,o),
(148,5,cs),
(351,0,ls)
);
}
);
width = 520;
}
);
metricWidth = "5T20";
unicode = (83,115);
},
{
glyphname = T;
lastChange = "2023-09-21 11:14:58 +0000";
layers = (
{
layerId = m01;
shapes = (
{
closed = 1;
nodes = (
(256,-1,o),
(319,-5,o),
(327,15,c),
(327,16,o),
(327,17,o),
(326,19,cs),
(324,26,o),
(313,44,o),
(313,59,c),
(319,79,o),
(313,83,o),
(318,99,cs),
(325,123,o),
(335,180,o),
(335,204,cs),
(334,214,o),
(334,225,o),
(334,227,cs),
(332,245,o),
(352,322,o),
(367,372,cs),
(373,397,o),
(370,421,o),
(370,424,cs),
(370,445,o),
(350,507,o),
(357,547,cs),
(361,570,o),
(357,589,o),
(365,617,cs),
(368,628,ls),
(373,646,o),
(372,643,o),
(385,646,cs),
(424,654,o),
(424,660,o),
(462,660,cs),
(471,660,o),
(503,669,o),
(516,674,cs),
(538,684,ls),
(541,685,o),
(543,686,o),
(544,686,cs),
(553,686,o),
(571,635,o),
(583,631,c),
(585,631,o),
(586,633,o),
(586,635,cs),
(586,645,o),
(587,673,o),
(581,682,c),
(579,683,o),
(574,690,o),
(571,692,c),
(565,698,o),
(561,705,o),
(547,705,cs),
(542,705,o),
(538,704,o),
(536,704,cs),
(481,700,o),
(404,697,o),
(348,687,c),
(336,688,o),
(350,682,o),
(329,698,cs),
(318,706,o),
(293,714,o),
(273,695,cs),
(260,681,o),
(268,692,o),
(257,687,cs),
(249,682,o),
(166,691,o),
(152,693,cs),
(134,696,ls),
(107,700,o),
(108,700,o),
(79,706,cs),
(61,710,ls),
(46,713,o),
(37,713,o),
(28,704,c),
(13,685,o),
(11,677,o),
(11,674,c),
(8,658,o),
(19,643,o),
(24,631,c),
(27,631,o),
(28,631,o),
(29,634,cs),
(29,635,o),
(31,644,o),
(32,653,cs),
(32,662,o),
(35,679,o),
(44,687,c),
(45,689,o),
(46,689,o),
(59,683,cs),
(81,672,o),
(89,669,o),
(101,665,cs),
(105,664,o),
(111,662,o),
(116,660,cs),
(124,657,o),
(123,657,o),
(132,656,cs),
(141,656,o),
(199,647,o),
(210,646,cs),
(222,646,o),
(225,646,o),
(228,640,cs),
(233,633,o),
(237,597,o),
(237,589,cs),
(237,574,l),
(238,556,ls),
(241,499,o),
(236,491,o),
(222,439,cs),
(220,431,o),
(219,415,o),
(219,402,cs),
(219,386,o),
(221,371,o),
(225,356,c),
(234,305,ls),
(237,285,o),
(246,265,o),
(246,245,cs),
(245,229,o),
(245,220,o),
(245,204,c),
(243,195,o),
(252,137,o),
(254,128,cs),
(256,121,o),
(257,117,o),
(260,102,cs),
(262,93,o),
(264,86,o),
(264,83,cs),
(264,75,ls),
(264,72,o),
(265,68,o),
(265,64,cs),
(265,53,ls),
(265,51,o),
(263,46,o),
(263,42,cs),
(263,41,o),
(262,39,o),
(261,38,cs),
(260,36,o),
(246,16,o),
(246,13,cs),
(246,9,o),
(252,9,o),
(252,6,c)
);
},
{
closed = 1;
nodes = (
(289,85,o),
(287,96,o),
(287,102,cs),
(287,105,o),
(290,146,o),
(291,149,c),
(293,125,ls),
(294,112,o),
(293,112,o),
(294,108,cs),
(295,106,o),
(296,105,o),
(295,98,cs),
(294,88,ls),
(294,83,o),
(292,82,o),
(290,84,cs)
);
},
{
closed = 1;
nodes = (
(288,195,o),
(288,212,o),
(288,227,cs),
(290,259,o),
(290,239,o),
(291,236,c),
(291,234,o),
(293,233,o),
(293,223,cs),
(293,184,o),
(294,165,o),
(290,184,cs)
);
},
{
closed = 1;
nodes = (
(289,276,o),
(289,295,o),
(290,311,cs),
(291,340,l),
(291,340,o),
(292,338,o),
(292,337,cs),
(292,329,o),
(292,279,o),
(291,278,cs)
);
}
);
width = 600;
}
);
unicode = (84,116);
},
{
glyphname = U;
lastChange = "2023-09-21 11:14:06 +0000";
layers = (
{
layerId = m01;
shapes = (
{
closed = 1;
nodes = (
(184,25,o),
(223,69,o),
(249,87,cs),
(292,118,o),
(321,126,o),
(388,215,cs),
(400,233,o),
(444,264,o),
(424,328,cs),
(416,355,o),
(398,351,o),
(399,364,cs),
(404,424,ls),
(404,429,o),
(409,467,o),
(410,481,cs),
(415,534,o),
(408,491,o),
(417,534,cs),
(418,540,o),
(419,543,o),
(422,550,cs),
(423,552,o),
(423,553,o),
(423,557,cs),
(423,567,ls),
(423,570,o),
(427,582,o),
(427,587,cs),
(427,591,o),
(438,625,o),
(439,631,cs),
(443,664,o),
(444,671,o),
(445,674,cs),
(447,683,o),
(448,683,o),
(449,693,cs),
(450,702,ls),
(450,704,o),
(449,707,o),
(448,705,c),
(433,686,o),
(430,682,o),
(428,680,c),
(427,678,o),
(425,672,o),
(425,670,cs),
(425,666,o),
(420,654,o),
(418,652,cs),
(417,651,o),
(416,651,o),
(415,651,cs),
(412,651,o),
(411,651,o),
(409,641,cs),
(399,602,ls),
(393,580,o),
(400,587,o),
(397,571,cs),
(395,559,o),
(394,548,o),
(391,541,cs),
(346,436,o),
(342,432,o),
(342,419,cs),
(342,418,o),
(333,371,o),
(332,369,c),
(331,364,o),
(330,358,o),
(329,357,cs),
(323,350,o),
(333,343,o),
(321,343,cs),
(320,343,o),
(316,346,o),
(316,346,c),
(309,334,ls),
(308,332,o),
(307,332,o),
(306,331,cs),
(304,329,o),
(292,327,o),
(292,323,cs),
(292,322,o),
(292,316,o),
(294,310,cs),
(298,302,o),
(291,305,o),
(290,296,cs),
(289,284,ls),
(289,280,o),
(285,268,o),
(285,265,cs),
(285,260,o),
(285,259,o),
(288,255,cs),
(292,251,o),
(299,252,o),
(299,248,cs),
(299,246,o),
(296,243,o),
(295,242,cs),
(271,217,o),
(256,248,o),
(223,213,cs),
(180,168,o),
(141,141,o),
(137,180,cs),
(118,338,ls),
(112,389,o),
(113,374,o),
(98,423,cs),
(88,455,o),
(97,425,o),
(89,457,cs),
(79,501,ls),
(59,601,o),
(75,574,o),
(50,672,c),
(49,674,o),
(48,681,o),
(45,687,cs),
(34,711,o),
(28,666,o),
(28,650,cs),
(28,643,ls),
(28,627,o),
(1,585,o),
(1,572,cs),
(1,562,o),
(19,550,o),
(19,543,cs),
(19,466,ls),
(19,440,o),
(19,422,o),
(20,418,cs),
(37,349,o),
(38,348,o),
(42,335,cs),
(43,332,o),
(43,332,o),
(43,326,cs),
(43,319,o),
(45,318,o),
(45,314,cs),
(45,311,o),
(34,308,o),
(34,108,cs),
(34,106,o),
(33,101,o),
(33,51,cs),
(33,14,o),
(101,-16,o),
(147,6,cs)
);
}
);
width = 475;
}
);
unicode = (85,117);
},
{
glyphname = V;
lastChange = "2023-09-21 11:14:04 +0000";
layers = (
{
layerId = m01;
shapes = (
{
closed = 1;
nodes = (
(245,-4,o),
(314,-26,o),
(370,48,cs),
(386,68,o),
(396,136,o),
(415,340,c),
(420,353,o),
(423,362,o),
(423,368,cs),
(423,378,o),
(426,394,o),
(430,401,c),
(442,440,l),
(444,446,l),
(450,457,ls),
(457,470,o),
(460,473,o),
(467,493,cs),
(468,496,ls),
(469,499,o),
(476,520,o),
(477,528,c),
(490,569,l),
(492,589,ls),
(493,601,o),
(496,604,o),
(500,612,cs),
(503,618,o),
(502,627,o),
(505,633,cs),
(507,637,l),
(510,638,l),
(515,643,ls),
(519,647,o),
(525,653,o),
(531,656,c),
(534,660,o),
(538,663,o),
(540,666,c),
(543,667,o),
(544,669,o),
(545,670,c),
(553,692,l),
(552,710,l),
(551,711,l),
(551,711,o),
(550,711,o),
(550,712,c),
(536,720,l),
(531,718,o),
(531,718,o),
(530,715,c),
(513,699,o),
(507,693,o),
(507,692,cs),
(506,689,ls),
(506,688,o),
(505,687,o),
(501,680,cs),
(494,668,ls),
(492,665,o),
(491,665,o),
(490,664,c),
(487,664,l),
(474,655,l),
(475,654,l),
(473,651,o),
(472,648,o),
(472,643,cs),
(472,636,o),
(472,635,o),
(470,630,c),
(468,619,o),
(466,615,o),
(460,600,c),
(458,600,o),
(455,595,o),
(454,590,c),
(448,583,l),
(448,582,o),
(448,582,o),
(446,578,cs),
(444,575,ls),
(443,574,o),
(442,574,o),
(441,571,cs),
(409,502,ls),
(401,484,o),
(400,469,o),
(399,468,cs),
(398,467,o),
(398,464,o),
(395,461,c),
(394,456,o),
(391,449,o),
(387,444,c),
(357,391,ls),
(355,388,o),
(352,384,o),
(352,383,cs),
(348,366,ls),
(338,322,o),
(298,193,o),
(256,210,cs),
(253,211,o),
(253,213,o),
(247,216,c),
(246,220,o),
(240,229,o),
(239,233,cs),
(238,235,o),
(233,269,o),
(227,279,cs),
(198,327,o),
(197,320,o),
(194,328,cs),
(190,337,o),
(188,340,o),
(188,340,c),
(166,383,l),
(164,392,o),
(163,397,o),
(159,424,cs),
(157,433,o),
(151,438,o),
(150,441,c),
(149,451,ls),
(148,464,o),
(148,473,o),
(142,488,c),
(137,510,o),
(133,519,o),
(123,537,cs),
(112,555,o),
(102,576,o),
(97,590,cs),
(93,603,o),
(93,610,o),
(94,624,cs),
(96,636,o),
(96,636,o),
(93,640,cs),
(90,646,o),
(88,646,o),
(83,648,cs),
(71,652,ls),
(69,653,o),
(67,653,o),
(67,653,c),
(53,674,l),
(53,678,o),
(51,680,o),
(50,681,c),
(47,689,o),
(46,689,o),
(41,694,c),
(35,698,o),
(31,700,o),
(31,704,c),
(29,708,o),
(28,710,o),
(22,711,c),
(17,713,o),
(17,713,o),
(15,711,c),
(9,695,o),
(8,690,o),
(8,687,c),
(9,686,o),
(8,684,o),
(9,682,c),
(9,674,o),
(8,674,o),
(9,673,cs),
(37,633,l),
(52,617,l),
(54,617,o),
(55,612,o),
(57,604,c),
(69,517,o),
(77,499,o),
(91,447,c),
(91,443,o),
(92,439,o),
(93,438,c),
(104,392,l),
(103,391,o),
(106,386,o),
(107,382,cs),
(117,354,l),
(118,344,l),
(118,339,ls),
(124,282,o),
(160,103,o),
(175,85,c),
(180,76,o),
(179,79,o),
(184,68,c),
(185,64,o),
(186,62,o),
(189,61,c),
(212,22,o),
(219,17,o),
(234,5,cs),
(236,3,o),
(239,1,o),
(240,1,c)
);
}
);
width = 563;
}
);
unicode = (86,118);
},
{
glyphname = W;
lastChange = "2023-09-28 11:23:15 +0000";
layers = (
{
layerId = m01;
shapes = (
{
closed = 1;
nodes = (
(368,11,o),
(473,-79,o),
(533,100,cs),
(534,104,o),
(569,141,o),
(587,181,cs),
(613,238,o),
(637,303,o),
(644,313,cs),
(659,334,o),
(651,339,o),
(668,368,c),
(674,375,o),
(698,440,o),
(741,584,cs),
(749,606,o),
(818,633,o),
(820,658,c),
(818,668,o),
(824,670,o),
(822,686,c),
(818,699,o),
(812,707,o),
(806,697,cs),
(804,694,ls),
(799,686,o),
(770,677,o),
(768,669,c),
(767,658,o),
(739,647,o),
(716,643,cs),
(692,638,o),
(690,597,o),
(692,584,cs),
(693,581,o),
(692,581,o),
(690,576,cs),
(681,556,ls),
(677,547,o),
(633,448,o),
(599,397,cs),
(550,323,l),
(502,236,ls),
(480,196,o),
(429,516,o),
(429,517,c),
(427,518,o),
(426,518,o),
(422,515,cs),
(418,512,l),
(415,515,ls),
(412,518,o),
(411,517,o),
(411,516,cs),
(396,442,o),
(379,377,o),
(378,370,cs),
(376,353,o),
(376,349,o),
(347,206,cs),
(346,202,o),
(346,199,o),
(345,199,cs),
(344,199,o),
(262,384,o),
(241,405,cs),
(235,411,l),
(175,558,o),
(221,469,o),
(150,610,cs),
(146,617,o),
(149,650,o),
(127,654,c),
(108,660,o),
(70,668,o),
(53,675,c),
(47,679,o),
(38,691,o),
(32,694,c),
(20,694,o),
(18,702,o),
(12,695,c),
(7,692,o),
(11,692,o),
(9,691,c),
(7,687,o),
(14,681,o),
(11,678,c),
(14,664,ls),
(17,650,o),
(28,654,o),
(34,654,c),
(44,651,o),
(85,605,o),
(91,596,c),
(120,564,o),
(122,464,o),
(150,434,c),
(151,432,o),
(152,431,o),
(154,424,c),
(165,404,o),
(185,340,o),
(218,258,cs),
(236,211,o),
(263,159,o),
(285,106,c)
);
},
{
closed = 1;
nodes = (
(419,216,o),
(412,332,o),
(414,345,cs),
(416,358,o),
(413,364,o),
(417,369,cs),
(418,370,o),
(418,370,o),
(420,369,c),
(425,364,o),
(443,218,o),
(430,183,c),
(423,183,l)
);
}
);
width = 834;
}
);
unicode = (87,119);
},
{
glyphname = X;
lastChange = "2023-09-21 11:14:00 +0000";
layers = (
{
layerId = m01;
shapes = (
{
closed = 1;
nodes = (
(485,-22,o),
(486,-21,o),
(491,-17,c),
(494,-11,ls),
(495,-9,o),
(491,-4,o),
(487,0,c),
(487,1,o),
(470,11,o),
(468,11,c),
(463,13,o),
(462,14,o),
(456,20,cs),
(453,23,o),
(449,26,o),
(448,28,cs),
(444,33,ls),
(441,36,o),
(441,37,o),
(440,40,cs),
(440,41,o),
(439,42,o),
(439,43,c),
(438,44,o),
(439,52,o),
(439,56,cs),
(439,59,l),
(453,87,ls),
(462,105,o),
(467,125,o),
(470,141,c),
(470,145,o),
(471,146,o),
(472,149,cs),
(476,158,o),
(478,167,o),
(479,176,cs),
(479,182,o),
(478,183,o),
(476,187,c),
(476,188,o),
(475,189,o),
(475,190,c),
(473,192,o),
(453,213,o),
(447,218,cs),
(446,219,o),
(443,222,o),
(441,223,c),
(419,242,ls),
(418,243,o),
(416,245,o),
(414,246,c),
(412,248,o),
(405,252,o),
(398,257,cs),
(364,280,l),
(362,283,o),
(353,286,o),
(353,286,c),
(348,288,o),
(349,300,o),
(325,341,c),
(324,342,l),
(324,347,ls),
(324,350,o),
(324,351,o),
(323,353,cs),
(322,356,l),
(335,416,ls),
(348,475,o),
(348,480,o),
(350,482,c),
(351,485,o),
(354,488,o),
(366,500,cs),
(372,505,o),
(379,512,o),
(382,515,cs),
(408,545,l),
(409,547,o),
(412,550,o),
(414,552,cs),
(418,557,o),
(419,559,o),
(421,562,cs),
(423,565,o),
(424,567,o),
(426,568,cs),
(428,569,o),
(433,573,o),
(449,590,c),
(455,595,o),
(461,602,o),
(463,604,cs),
(467,609,o),
(472,618,o),
(485,634,cs),
(496,648,l),
(497,650,o),
(498,652,o),
(499,653,cs),
(502,658,o),
(505,663,o),
(513,673,cs),
(519,681,o),
(521,684,o),
(522,686,cs),
(524,689,o),
(541,717,o),
(538,720,c),
(538,721,o),
(536,722,o),
(535,722,cs),
(534,722,l),
(532,721,o),
(531,720,o),
(529,718,c),
(529,718,o),
(528,717,o),
(527,717,c),
(517,707,o),
(512,701,o),
(507,699,c),
(505,697,l),
(502,699,l),
(500,698,ls),
(497,696,o),
(492,690,o),
(492,688,c),
(480,661,o),
(479,659,o),
(479,658,c),
(413,591,ls),
(408,586,o),
(407,584,o),
(407,584,c),
(407,583,l),
(406,584,o),
(406,583,o),
(404,582,cs),
(386,571,ls),
(381,568,o),
(377,565,o),
(376,563,c),
(333,530,ls),
(327,526,o),
(323,524,o),
(315,516,cs),
(312,513,o),
(309,510,o),
(308,510,cs),
(306,510,l),
(306,510,o),
(303,510,o),
(302,511,c),
(296,511,o),
(294,512,o),
(292,516,cs),
(291,518,l),
(292,520,ls),
(294,524,o),
(293,524,o),
(295,524,c),
(317,535,l),
(317,536,l),
(323,554,o),
(318,538,o),
(320,557,cs),
(320,565,o),
(319,566,o),
(318,572,c),
(318,583,o),
(315,624,o),
(287,625,cs),
(244,627,o),
(237,616,o),
(230,572,c),
(230,568,o),
(228,560,o),
(228,552,cs),
(227,543,o),
(229,531,o),
(230,530,cs),
(231,529,o),
(231,529,o),
(233,529,cs),
(235,529,o),
(235,528,o),
(236,527,cs),
(238,526,o),
(240,524,o),
(241,524,cs),
(242,524,o),
(246,523,o),
(248,522,cs),
(249,521,o),
(249,521,o),
(244,513,cs),
(243,512,o),
(238,511,o),
(236,511,cs),
(229,510,ls),
(228,510,o),
(227,510,o),
(225,512,cs),
(221,516,o),
(211,523,o),
(207,526,cs),
(206,527,o),
(202,529,o),
(200,530,cs),
(188,536,o),
(176,546,o),
(160,562,cs),
(151,571,o),
(147,574,o),
(137,581,cs),
(133,584,o),
(129,587,o),
(125,593,cs),
(121,599,o),
(116,606,o),
(112,609,c),
(109,613,o),
(98,622,o),
(89,631,cs),
(69,649,o),
(62,657,o),
(60,662,c),
(61,666,ls),
(62,668,o),
(62,669,o),
(60,672,cs),
(59,674,o),
(58,675,o),
(57,676,cs),
(54,679,o),
(54,679,o),
(53,683,cs),
(52,686,o),
(50,691,o),
(49,692,cs),
(48,693,o),
(46,694,o),
(45,693,c),
(43,693,l),
(43,693,o),
(40,695,o),
(37,698,cs),
(32,704,o),
(4,728,o),
(10,717,cs),
(23,692,l),
(24,689,o),
(25,687,o),
(26,686,cs),
(27,685,o),
(38,661,o),
(38,659,cs),
(38,657,o),
(39,657,o),
(40,654,c),
(65,619,ls),
(66,617,o),
(67,616,o),
(67,615,c),
(69,612,o),
(77,601,o),
(84,594,cs),
(90,588,l),
(91,586,o),
(95,582,o),
(98,579,cs),
(106,571,ls),
(107,570,o),
(108,568,o),
(109,568,c),
(112,566,o),
(113,564,o),
(115,562,cs),
(117,560,o),
(121,554,o),
(123,551,c),
(124,551,o),
(125,549,o),
(127,546,cs),
(131,542,o),
(137,535,o),
(141,530,cs),
(145,525,ls),
(150,519,o),
(164,503,o),
(173,496,c),
(180,488,o),
(186,483,o),
(187,481,cs),
(189,478,o),
(190,475,o),
(191,473,c),
(191,472,o),
(192,470,o),
(192,468,c),
(199,445,o),
(198,452,o),
(202,428,cs),
(208,394,l),
(209,382,ls),
(209,381,o),
(210,379,o),
(210,379,c),
(211,377,o),
(211,376,o),
(211,369,cs),
(212,345,o),
(212,369,o),
(212,345,cs),
(212,341,l),
(209,338,l),
(209,336,o),
(208,335,o),
(208,335,c),
(207,335,o),
(206,334,o),
(206,332,cs),
(206,331,o),
(189,290,o),
(186,289,c),
(185,288,l),
(146,265,o),
(130,254,o),
(54,183,cs),
(53,182,o),
(53,176,o),
(53,171,cs),
(53,153,o),
(60,112,o),
(62,107,cs),
(63,103,o),
(67,92,o),
(70,80,cs),
(72,73,ls),
(72,72,o),
(73,66,o),
(74,64,cs),
(75,61,o),
(75,55,o),
(74,51,cs),
(73,49,o),
(71,46,o),
(66,41,cs),
(64,38,o),
(61,35,o),
(59,33,c),
(31,19,o),
(22,-8,o),
(28,-8,c),
(30,-10,ls),
(31,-11,o),
(31,-11,o),
(34,-11,cs),
(38,-11,o),
(50,-7,o),
(52,-7,c),
(54,-6,o),
(57,-5,o),
(58,-4,cs),
(81,15,l),
(82,14,o),
(84,14,o),
(90,15,cs),
(96,17,o),
(100,18,o),
(102,19,c),
(103,19,o),
(106,22,o),
(106,23,c),
(110,33,o),
(110,42,o),
(109,42,c),
(109,47,l),
(108,49,o),
(108,52,o),
(108,53,cs),
(108,71,ls),
(108,72,o),
(109,73,o),
(109,74,cs),
(109,81,l),
(112,95,o),
(112,97,o),
(112,107,cs),
(112,125,ls),
(112,137,o),
(110,142,o),
(106,153,cs),
(105,156,l),
(106,156,l),
(110,160,o),
(124,169,o),
(130,173,c),
(167,190,ls),
(173,193,o),
(178,196,o),
(183,199,cs),
(192,205,o),
(201,210,o),
(206,213,c),
(210,214,o),
(215,217,o),
(219,219,cs),
(234,228,o),
(242,231,o),
(255,234,cs),
(261,236,o),
(264,236,o),
(269,236,cs),
(280,236,o),
(298,232,o),
(310,225,cs),
(326,216,l),
(332,212,ls),
(335,210,o),
(340,207,o),
(343,206,c),
(349,202,o),
(386,186,o),
(387,186,c),
(388,185,o),
(419,163,o),
(419,162,c),
(422,159,l),
(424,158,o),
(424,157,o),
(424,156,cs),
(424,155,o),
(424,154,o),
(423,152,cs),
(422,151,o),
(422,149,o),
(421,148,c),
(421,148,o),
(421,147,o),
(420,147,c),
(420,146,o),
(417,140,o),
(416,138,cs),
(415,135,o),
(414,132,o),
(413,125,cs),
(412,121,o),
(412,118,o),
(411,118,c),
(411,115,o),
(410,107,o),
(410,101,cs),
(410,98,o),
(409,95,o),
(409,95,c),
(409,74,ls),
(409,71,o),
(410,67,o),
(408,58,cs),
(403,36,ls),
(401,30,o),
(400,25,o),
(400,19,cs),
(400,16,o),
(401,15,o),
(403,12,cs),
(406,8,o),
(414,4,o),
(430,4,cs),
(440,4,o),
(447,-9,o),
(457,-12,c),
(460,-14,o),
(460,-14,o),
(481,-21,cs)
);
}
);
width = 550;
}
);
unicode = (88,120);
},
{
glyphname = Y;
lastChange = "2023-09-21 11:13:57 +0000";
layers = (
{
layerId = m01;
shapes = (
{
closed = 1;
nodes = (
(243,-1,o),
(250,14,o),
(236,24,c),
(225,36,o),
(214,61,o),
(217,71,cs),
(252,203,o),
(208,71,o),
(258,230,cs),
(279,288,o),
(259,322,o),
(258,340,cs),
(257,352,l),
(268,417,ls),
(269,422,o),
(279,462,o),
(279,465,cs),
(279,467,o),
(280,470,o),
(280,474,cs),
(280,483,o),
(281,485,o),
(282,489,cs),
(283,492,o),
(284,496,o),
(288,500,c),
(299,515,o),
(305,524,o),
(312,536,cs),
(346,596,o),
(376,654,o),
(377,658,cs),
(379,664,o),
(392,691,o),
(392,695,cs),
(394,723,ls),
(395,738,o),
(382,732,o),
(380,727,cs),
(372,705,o),
(369,703,o),
(368,703,cs),
(366,703,o),
(365,701,o),
(356,675,cs),
(354,669,o),
(362,662,o),
(352,648,cs),
(334,620,o),
(326,619,o),
(322,608,cs),
(312,582,o),
(269,529,o),
(254,529,c),
(257,593,o),
(174,596,o),
(178,527,c),
(176,528,ls),
(175,529,o),
(137,553,o),
(125,563,cs),
(108,575,o),
(87,610,o),
(78,627,cs),
(47,683,l),
(43,695,o),
(39,703,o),
(37,703,c),
(29,731,o),
(20,738,o),
(12,725,c),
(19,704,o),
(21,683,o),
(25,681,c),
(29,677,o),
(29,677,o),
(29,676,c),
(41,647,o),
(50,622,o),
(71,593,cs),
(72,592,o),
(78,574,o),
(144,473,c),
(157,410,o),
(163,399,o),
(140,332,cs),
(125,284,o),
(125,253,o),
(148,178,c),
(167,69,ls),
(169,58,o),
(163,44,o),
(162,40,c),
(157,31,o),
(156,28,o),
(155,26,cs),
(141,3,o),
(168,-2,o),
(182,0,cs),
(186,1,o),
(185,32,o),
(187,36,c),
(187,43,o),
(191,54,o),
(191,52,cs),
(191,48,o),
(212,-1,o),
(225,-1,cs)
);
},
{
closed = 1;
nodes = (
(194,199,o),
(196,257,o),
(197,258,c),
(201,257,o),
(202,256,o),
(202,256,c),
(198,204,o),
(197,199,o),
(196,199,cs)
);
}
);
width = 410;
}
);
unicode = (89,121);
},
{
glyphname = Z;
lastChange = "2023-09-28 11:21:47 +0000";
layers = (
{
layerId = m01;
shapes = (
{
closed = 1;
nodes = (
(446,4,o),
(190,0,o),
(440,9,cs),
(458,9,o),
(444,7,o),
(476,5,cs),
(507,4,o),
(585,-7,o),
(501,36,cs),
(418,76,o),
(450,120,o),
(404,84,cs),
(388,73,o),
(309,94,o),
(259,89,cs),
(256,89,o),
(220,79,o),
(221,84,c),
(236,128,o),
(263,180,o),
(296,226,cs),
(332,273,o),
(369,314,o),
(369,361,cs),
(369,415,o),
(454,501,o),
(467,547,c),
(478,577,o),
(472,587,o),
(464,612,cs),
(463,616,o),
(469,628,o),
(466,643,cs),
(463,656,o),
(453,666,o),
(445,674,cs),
(438,681,o),
(381,695,o),
(356,655,cs),
(349,647,o),
(360,630,o),
(340,631,cs),
(217,637,o),
(199,624,o),
(174,624,cs),
(144,624,o),
(90,621,o),
(87,621,cs),
(30,612,l),
(19,614,ls),
(15,615,o),
(9,614,o),
(11,610,c),
(13,608,o),
(16,603,o),
(69,596,c),
(79,590,o),
(76,587,o),
(86,589,c),
(252,584,ls),
(277,583,o),
(307,589,o),
(319,587,c),
(310,573,l),
(317,574,l),
(336,566,l),
(342,562,o),
(318,544,o),
(314,533,cs),
(305,511,o),
(303,484,o),
(289,457,cs),
(267,412,o),
(230,370,o),
(225,349,cs),
(209,288,o),
(207,280,o),
(203,270,cs),
(198,256,o),
(124,65,o),
(124,52,cs),
(124,37,o),
(134,15,o),
(149,8,cs),
(159,4,o),
(161,4,o),
(173,4,cs)
);
}
);
width = 548;
}
);
unicode = (90,122);
},
